<?xml version="1.0" encoding="UTF-8" standalone="no"?>
<!-- Svg Vector Icons : http://www.onlinewebfonts.com/icon -->

<svg
   xmlns:dc="http://purl.org/dc/elements/1.1/"
   xmlns:cc="http://creativecommons.org/ns#"
   xmlns:rdf="http://www.w3.org/1999/02/22-rdf-syntax-ns#"
   xmlns:svg="http://www.w3.org/2000/svg"
   xmlns="http://www.w3.org/2000/svg"
   xmlns:sodipodi="http://sodipodi.sourceforge.net/DTD/sodipodi-0.dtd"
   xmlns:inkscape="http://www.inkscape.org/namespaces/inkscape"
   version="1.1"
   x="0px"
   y="0px"
   viewBox="0 0 1000 1000"
   enable-background="new 0 0 1000 1000"
   xml:space="preserve"
   id="svg20"
   sodipodi:docname="chart.svg"
   inkscape:version="0.92.4 (5da689c313, 2019-01-14)"><defs
   id="defs24" /><sodipodi:namedview
   pagecolor="#ffffff"
   bordercolor="#666666"
   borderopacity="1"
   objecttolerance="10"
   gridtolerance="10"
   guidetolerance="10"
   inkscape:pageopacity="0"
   inkscape:pageshadow="2"
   inkscape:window-width="1920"
   inkscape:window-height="991"
   id="namedview22"
   showgrid="false"
   inkscape:zoom="0.236"
   inkscape:cx="500"
   inkscape:cy="500"
   inkscape:window-x="-9"
   inkscape:window-y="-9"
   inkscape:window-maximized="1"
   inkscape:current-layer="svg20" />
<metadata
   id="metadata2"> Svg Vector Icons : http://www.onlinewebfonts.com/icon <rdf:RDF><cc:Work
     rdf:about=""><dc:format>image/svg+xml</dc:format><dc:type
       rdf:resource="http://purl.org/dc/dcmitype/StillImage" /><dc:title></dc:title></cc:Work></rdf:RDF></metadata>
<g
   id="g18"
   style="fill:#e560db;fill-opacity:1"
   transform="matrix(0.93946785,0,0,1.1565309,34.503626,-78.265425)"><g
     transform="matrix(0.1,0,0,-0.1,0,511)"
     id="g16"
     style="fill:#e560db;fill-opacity:1"><path
       d="m 187.8,3883.6 c -24.5,-10.2 -53.1,-36.7 -65.3,-59.2 C 106.1,3795.8 100,2666.9 100,100.9 c 0,-3596.9 0,-3684.7 38.8,-3731.7 l 38.8,-49 h 4821.8 4821.8 l 38.8,49 c 55.1,67.4 53.1,224.6 -4.1,296 l -40.8,53.1 H 5160.6 508.3 V 258.1 c 0,3386.7 -2,3541.8 -36.7,3584.7 -40.9,51 -204.2,75.5 -283.8,40.8 z"
       id="path4"
       style="fill:#e560db;fill-opacity:1"
       inkscape:connector-curvature="0" /><path
       d="m 8204.3,3683.5 c -387.9,-110.2 -716.5,-206.2 -730.8,-214.3 -44.9,-28.6 -26.5,-57.2 142.9,-232.7 L 7783.8,3065 6926.4,2207.6 6067,1348.2 5246.3,2473 c -451.1,618.5 -841,1137.1 -865.5,1155.4 -24.5,16.3 -87.8,30.6 -142.9,30.6 -98,0 -144.9,-28.6 -1522.9,-910.5 -781.9,-500.1 -1445.3,-935 -1478,-963.5 -93.9,-89.8 -108.2,-214.3 -36.8,-349.1 32.7,-61.3 128.6,-104.1 230.7,-104.1 81.7,0 191.9,65.3 1412.6,849.2 726.7,465.4 1324.9,845.1 1326.9,841 12.3,-16.3 1247.3,-1710.7 1437.1,-1969.9 C 5879,680.6 5911.7,650 6056.6,662.2 l 110.3,10.2 1008.4,1008.4 1008.4,1008.4 189.9,-189.8 c 104.1,-102.1 204.1,-187.8 222.5,-187.8 20.4,0 42.9,26.5 55.1,67.4 71.4,224.6 371.5,1412.6 365.4,1449.4 -4.1,30.6 -22.5,44.9 -57.2,49 -28.3,2.1 -367.2,-85.7 -755.1,-193.9 z"
       id="path6"
       style="fill:#e560db;fill-opacity:1"
       inkscape:connector-curvature="0" /><path
       d="m 7610.3,1409.4 c -20.4,-8.2 -49,-38.8 -59.2,-69.4 -14.3,-34.7 -18.4,-769.6 -16.3,-2092.4 6.1,-1925 8.1,-2039.4 42.9,-2074.1 32.7,-34.7 91.9,-36.7 730.8,-36.7 h 696.1 l 38.8,49 c 36.8,47 38.8,110.2 38.8,2094.5 0,1945.4 -2,2049.6 -36.7,2092.4 -36.7,44.9 -38.8,44.9 -716.5,49 -373.7,0 -696.3,-4.1 -718.7,-12.3 z"
       id="path8"
       style="fill:#e560db;fill-opacity:1"
       inkscape:connector-curvature="0" /><path
       d="m 3202.9,903.1 c -40.8,-40.8 -40.8,-67.4 -40.8,-1865.8 0,-1986.3 -6.1,-1872 108.2,-1900.5 24.5,-6.1 340.9,-10.2 702.3,-6.1 579.8,6.1 661.4,10.2 692,40.8 30.6,30.6 32.7,185.8 32.7,1865.8 V 870.5 l -44.9,36.8 c -40.8,34.7 -100,36.7 -726.7,36.7 -655.4,0 -684,-2.1 -722.8,-40.9 z"
       id="path10"
       style="fill:#e560db;fill-opacity:1"
       inkscape:connector-curvature="0" /><path
       d="m 5391.3,-144.1 -44.9,-47 v -1298.3 -1300.4 l 53.1,-40.8 c 53.1,-40.8 77.6,-42.9 726.7,-42.9 h 671.6 l 49,51 51,49 v 1288.1 1288.1 l -51,49 -49,51 H 6116 5434.2 Z"
       id="path12"
       style="fill:#e560db;fill-opacity:1"
       inkscape:connector-curvature="0" /><path
       d="m 1022.7,-640.1 -44.9,-30.6 v -1067.6 c 0,-969.7 4.1,-1071.7 34.7,-1096.2 26.5,-22.5 169.4,-30.6 687.9,-34.7 361.3,-4.1 675.7,0 700.2,6.1 112.3,26.5 108.2,-12.2 108.2,1124.8 0,1022.7 -2,1051.3 -40.8,1090.1 -38.8,38.8 -67.4,40.8 -720.6,40.8 -581.8,-0.1 -685.9,-4.2 -724.7,-32.7 z"
       id="path14"
       style="fill:#e560db;fill-opacity:1"
       inkscape:connector-curvature="0" /></g></g>
</svg>