<?xml version="1.0" encoding="UTF-8" standalone="no"?>
<svg
   xmlns:dc="http://purl.org/dc/elements/1.1/"
   xmlns:cc="http://creativecommons.org/ns#"
   xmlns:rdf="http://www.w3.org/1999/02/22-rdf-syntax-ns#"
   xmlns:svg="http://www.w3.org/2000/svg"
   xmlns="http://www.w3.org/2000/svg"
   xmlns:sodipodi="http://sodipodi.sourceforge.net/DTD/sodipodi-0.dtd"
   xmlns:inkscape="http://www.inkscape.org/namespaces/inkscape"
   width="20px"
   height="20px"
   viewBox="0 -2 20 20"
   version="1.1"
   id="svg4"
   sodipodi:docname="code.svg"
   inkscape:version="0.92.4 (5da689c313, 2019-01-14)">
  <metadata
     id="metadata10">
    <rdf:RDF>
      <cc:Work
         rdf:about="">
        <dc:format>image/svg+xml</dc:format>
        <dc:type
           rdf:resource="http://purl.org/dc/dcmitype/StillImage" />
        <dc:title />
      </cc:Work>
    </rdf:RDF>
  </metadata>
  <defs
     id="defs8" />
  <sodipodi:namedview
     pagecolor="#ffffff"
     bordercolor="#666666"
     borderopacity="1"
     objecttolerance="10"
     gridtolerance="10"
     guidetolerance="10"
     inkscape:pageopacity="0"
     inkscape:pageshadow="2"
     inkscape:window-width="1920"
     inkscape:window-height="991"
     id="namedview6"
     showgrid="false"
     inkscape:zoom="11.8"
     inkscape:cx="-4.9152542"
     inkscape:cy="10"
     inkscape:window-x="-9"
     inkscape:window-y="-9"
     inkscape:window-maximized="1"
     inkscape:current-layer="svg4" />
  <path
     d="m 12.373161,1.0748041 c 0.466201,0.1803969 0.706576,0.7284302 0.536893,1.2240667 L 8.6087159,14.862879 C 8.4390328,15.358515 7.9235473,15.614067 7.4573468,15.43367 6.9911463,15.253273 6.7507715,14.70524 6.9204546,14.209604 L 11.221792,1.6455957 c 0.169683,-0.4956364 0.685169,-0.75118854 1.151369,-0.5707916 z m -9.2722573,7.411161 3.1759881,3.3765199 c 0.35081,0.37296 0.35081,0.977648 0,1.350608 -0.3508099,0.37296 -0.9195853,0.37296 -1.2703952,0 L 1.1953109,9.1612691 c -0.35081,-0.3729601 -0.35081,-0.977648 0,-1.3506081 L 5.0064966,3.7588367 c 0.3508099,-0.3729602 0.9195853,-0.3729602 1.2703952,0 0.35081,0.3729601 0.35081,0.9776479 0,1.3506081 z m 13.6287003,0 -3.175988,-3.3765203 c -0.35081,-0.3729602 -0.35081,-0.977648 0,-1.3506081 0.35081,-0.3729602 0.919586,-0.3729602 1.270396,0 l 3.811185,4.0518243 c 0.35081,0.3729601 0.35081,0.977648 0,1.3506081 l -3.811185,4.0518239 c -0.35081,0.37296 -0.919586,0.37296 -1.270396,0 -0.35081,-0.37296 -0.35081,-0.977648 0,-1.350608 z"
     id="path2"
     style="fill:#4b4b4b;fill-opacity:1;stroke:none;stroke-width:0.90147746"
     inkscape:connector-curvature="0" />
</svg>
