<?xml version="1.0" encoding="UTF-8" standalone="no"?>
<svg
   xmlns:dc="http://purl.org/dc/elements/1.1/"
   xmlns:cc="http://creativecommons.org/ns#"
   xmlns:rdf="http://www.w3.org/1999/02/22-rdf-syntax-ns#"
   xmlns:svg="http://www.w3.org/2000/svg"
   xmlns="http://www.w3.org/2000/svg"
   xmlns:sodipodi="http://sodipodi.sourceforge.net/DTD/sodipodi-0.dtd"
   xmlns:inkscape="http://www.inkscape.org/namespaces/inkscape"
   width="36px"
   height="36px"
   viewBox="0 0 36 36"
   version="1.1"
   preserveAspectRatio="xMidYMid meet"
   id="svg10"
   sodipodi:docname="config.svg"
   inkscape:version="0.92.4 (5da689c313, 2019-01-14)">
  <metadata
     id="metadata16">
    <rdf:RDF>
      <cc:Work
         rdf:about="">
        <dc:format>image/svg+xml</dc:format>
        <dc:type
           rdf:resource="http://purl.org/dc/dcmitype/StillImage" />
        <dc:title>cog-line</dc:title>
      </cc:Work>
    </rdf:RDF>
  </metadata>
  <defs
     id="defs14" />
  <sodipodi:namedview
     pagecolor="#ffffff"
     bordercolor="#666666"
     borderopacity="1"
     objecttolerance="10"
     gridtolerance="10"
     guidetolerance="10"
     inkscape:pageopacity="0"
     inkscape:pageshadow="2"
     inkscape:window-width="1920"
     inkscape:window-height="991"
     id="namedview12"
     showgrid="false"
     inkscape:zoom="6.5555556"
     inkscape:cx="-8.8474575"
     inkscape:cy="18"
     inkscape:window-x="-9"
     inkscape:window-y="-9"
     inkscape:window-maximized="1"
     inkscape:current-layer="svg10" />
  <title
     id="title2">cog-line</title>
  <path
     class="clr-i-outline clr-i-outline-path-1"
     d="m 18.181434,10.714863 c -4.101356,0 -7.361408,3.260052 -7.361408,7.361408 0,4.101356 3.260052,7.361408 7.361408,7.361408 4.101356,0 7.361409,-3.260052 7.361409,-7.361408 0,-4.101356 -3.260053,-7.361408 -7.361409,-7.361408 z m 0,12.619557 c -2.944564,0 -5.258149,-2.313586 -5.258149,-5.258149 0,-2.944563 2.313585,-5.258148 5.258149,-5.258148 2.944563,0 5.258149,2.313585 5.258149,5.258148 0,2.944563 -2.313586,5.258149 -5.258149,5.258149 z"
     id="path4"
     style="fill:#4b4b4b;fill-opacity:1;stroke:#090909;stroke-width:0.40000001;stroke-miterlimit:4;stroke-dasharray:none;stroke-opacity:1"
     inkscape:connector-curvature="0" />
  <path
     class="clr-i-outline clr-i-outline-path-2"
     d="M 33.640391,14.605893 30.695828,13.659426 30.06485,12.081981 31.537131,9.3477447 c 0.315489,-0.630978 0.210327,-1.472282 -0.315488,-1.998097 l -2.523912,-2.523911 c -0.525815,-0.525815 -1.367119,-0.630978 -1.998096,-0.315489 l -2.734238,1.472282 -1.577444,-0.630978 -0.946467,-2.944563 C 21.23116,1.7760107 20.600182,1.2501957 19.864041,1.2501957 h -3.57554 c -0.736141,0 -1.367119,0.525815 -1.472283,1.261956 l -0.946466,2.944563 c -0.630978,0.105163 -1.156792,0.315489 -1.682607,0.630978 L 9.4529078,4.6154107 c -0.630978,-0.315489 -1.472282,-0.210326 -1.998097,0.315489 l -2.523911,2.523911 c -0.525815,0.525815 -0.630978,1.367119 -0.315489,1.998097 l 1.367119,2.6290733 c -0.210326,0.525816 -0.420652,1.156793 -0.630978,1.682608 l -2.944564,0.946467 c -0.630977,0.210326 -1.156792,0.841304 -1.156792,1.577445 v 3.57554 c 0,0.736142 0.525815,1.367119 1.261955,1.577445 l 2.944564,0.946466 0.630978,1.577445 -1.472282,2.734238 c -0.315489,0.630978 -0.210326,1.472281 0.315489,1.998097 l 2.523911,2.523911 c 0.525815,0.525814 1.367119,0.630977 1.998097,0.315489 l 2.7342372,-1.472282 1.577444,0.630978 0.946467,3.049726 c 0.210326,0.630977 0.841304,1.156793 1.577445,1.156793 h 3.57554 c 0.736141,0 1.367119,-0.525816 1.577445,-1.156793 l 0.946467,-3.049726 1.577444,-0.630978 2.734238,1.472282 c 0.630977,0.315488 1.472281,0.210325 1.998096,-0.315489 l 2.523912,-2.523911 c 0.525815,-0.525816 0.630977,-1.367119 0.315488,-1.998097 l -1.472281,-2.734238 0.630978,-1.577445 3.049726,-0.946466 c 0.630978,-0.210326 1.156793,-0.841303 1.156793,-1.577445 v -3.57554 c 0,-0.736141 -0.525815,-1.472282 -1.261956,-1.682608 z m -0.841304,4.94266 -3.785867,1.156793 -0.105163,0.525814 c -0.315489,0.736141 -0.630978,1.472282 -0.946466,2.208423 l -0.31549,0.525814 1.892934,3.470379 -2.103259,2.103259 -3.470379,-1.892933 -0.525814,0.315488 c -0.736142,0.420652 -1.472282,0.736142 -2.208423,0.946468 l -0.525815,0.105163 -1.156792,3.785867 H 16.603989 L 15.447197,29.013221 14.921382,28.908058 C 14.185241,28.592568 13.449101,28.277079 12.71296,27.96159 l -0.525815,-0.315488 -3.4703782,1.892933 -2.10326,-2.103259 1.892934,-3.470379 -0.315489,-0.525814 C 7.7702998,22.703442 7.4548108,21.967301 7.2444848,21.23116 L 7.1393218,20.705346 3.3534548,19.548553 V 16.60399 l 3.575541,-1.05163 0.210326,-0.525815 c 0.210326,-0.841304 0.525815,-1.577445 0.946467,-2.313585 l 0.315489,-0.525815 -1.787771,-3.4703783 2.10326,-2.10326 3.3652152,1.892934 0.525815,-0.315489 c 0.73614,-0.420652 1.472281,-0.736141 2.313585,-0.946467 l 0.525815,-0.210326 1.156792,-3.680704 h 2.944564 l 1.156792,3.680704 0.525815,0.210326 c 0.736141,0.210326 1.472281,0.525815 2.208423,0.946467 l 0.525814,0.315489 3.470379,-1.892934 2.103259,2.10326 -1.892934,3.4703783 0.31549,0.525815 c 0.420652,0.73614 0.73614,1.472281 0.946466,2.208422 l 0.105163,0.525815 3.785867,1.156793 z"
     id="path6"
     style="fill:#4b4b4b;fill-opacity:1;stroke:#090909;stroke-width:0.40000001;stroke-miterlimit:4;stroke-dasharray:none;stroke-opacity:1"
     inkscape:connector-curvature="0" />
</svg>
