<?xml version="1.0" encoding="UTF-8" standalone="no"?>
<svg
   xmlns:dc="http://purl.org/dc/elements/1.1/"
   xmlns:cc="http://creativecommons.org/ns#"
   xmlns:rdf="http://www.w3.org/1999/02/22-rdf-syntax-ns#"
   xmlns:svg="http://www.w3.org/2000/svg"
   xmlns="http://www.w3.org/2000/svg"
   xmlns:sodipodi="http://sodipodi.sourceforge.net/DTD/sodipodi-0.dtd"
   xmlns:inkscape="http://www.inkscape.org/namespaces/inkscape"
   width="36px"
   height="36px"
   viewBox="0 0 36 36"
   version="1.1"
   preserveAspectRatio="xMidYMid meet"
   id="svg10"
   sodipodi:docname="config_w.svg"
   inkscape:version="0.92.4 (5da689c313, 2019-01-14)">
  <metadata
     id="metadata16">
    <rdf:RDF>
      <cc:Work
         rdf:about="">
        <dc:format>image/svg+xml</dc:format>
        <dc:type
           rdf:resource="http://purl.org/dc/dcmitype/StillImage" />
        <dc:title>cog-line</dc:title>
      </cc:Work>
    </rdf:RDF>
  </metadata>
  <defs
     id="defs14" />
  <sodipodi:namedview
     pagecolor="#ffffff"
     bordercolor="#666666"
     borderopacity="1"
     objecttolerance="10"
     gridtolerance="10"
     guidetolerance="10"
     inkscape:pageopacity="0"
     inkscape:pageshadow="2"
     inkscape:window-width="1920"
     inkscape:window-height="991"
     id="namedview12"
     showgrid="false"
     inkscape:zoom="6.5555556"
     inkscape:cx="18"
     inkscape:cy="18"
     inkscape:window-x="-9"
     inkscape:window-y="-9"
     inkscape:window-maximized="1"
     inkscape:current-layer="svg10" />
  <title
     id="title2">cog-line</title>
  <path
     class="clr-i-outline clr-i-outline-path-1"
     d="m 18.181434,10.714863 c -4.101356,0 -7.361408,3.260052 -7.361408,7.361408 0,4.101356 3.260052,7.361408 7.361408,7.361408 4.101356,0 7.361409,-3.260052 7.361409,-7.361408 0,-4.101356 -3.260053,-7.361408 -7.361409,-7.361408 z m 0,12.619557 c -2.944564,0 -5.258149,-2.313586 -5.258149,-5.258149 0,-2.944563 2.313585,-5.258148 5.258149,-5.258148 2.944563,0 5.258149,2.313585 5.258149,5.258148 0,2.944563 -2.313586,5.258149 -5.258149,5.258149 z"
     id="path4"
     style="fill:#f5f5f5;fill-opacity:1;stroke:#f1f1f1;stroke-width:0.52581489;stroke-miterlimit:4;stroke-dasharray:none;stroke-opacity:1"
     inkscape:connector-curvature="0" />
  <path
     class="clr-i-outline clr-i-outline-path-2"
     d="M 33.640391,14.605893 30.695828,13.659426 30.06485,12.081981 31.537131,9.3477442 C 31.85262,8.7167666 31.747458,7.8754628 31.221643,7.3496479 L 28.697731,4.8257366 C 28.171916,4.2999218 27.330612,4.1947588 26.699635,4.5102477 L 23.965397,5.9825293 22.387953,5.3515515 21.441486,2.4069882 C 21.23116,1.7760104 20.600182,1.2501956 19.864041,1.2501956 h -3.57554 c -0.736141,0 -1.367119,0.5258148 -1.472283,1.2619556 l -0.946466,2.9445632 c -0.630978,0.105163 -1.156792,0.315489 -1.682607,0.6309778 L 9.4529075,4.6154106 C 8.8219296,4.2999218 7.9806257,4.4050847 7.4548109,4.9308996 L 4.9308996,7.4548109 C 4.4050847,7.9806258 4.2999217,8.8219296 4.6154107,9.4529073 L 5.9825293,12.081981 C 5.7722034,12.607797 5.5618774,13.238774 5.3515515,13.764589 L 2.4069882,14.711056 C 1.7760104,14.921382 1.2501956,15.55236 1.2501956,16.288501 v 3.57554 c 0,0.736142 0.5258148,1.367119 1.2619556,1.577445 l 2.9445632,0.946466 0.6309779,1.577445 -1.4722816,2.734238 c -0.315489,0.630978 -0.210326,1.472281 0.3154889,1.998097 l 2.5239113,2.523911 c 0.5258148,0.525814 1.3671187,0.630977 1.9980966,0.315489 l 2.7342375,-1.472282 1.577444,0.630978 0.946467,3.049726 c 0.210326,0.630977 0.841304,1.156793 1.577445,1.156793 h 3.57554 c 0.736141,0 1.367119,-0.525816 1.577445,-1.156793 l 0.946467,-3.049726 1.577444,-0.630978 2.734238,1.472282 c 0.630977,0.315488 1.472281,0.210325 1.998096,-0.315489 l 2.523912,-2.523911 c 0.525815,-0.525816 0.630977,-1.367119 0.315488,-1.998097 l -1.472281,-2.734238 0.630978,-1.577445 3.049726,-0.946466 c 0.630978,-0.210326 1.156793,-0.841303 1.156793,-1.577445 v -3.57554 c 0,-0.736141 -0.525815,-1.472282 -1.261956,-1.682608 z m -0.841304,4.94266 -3.785867,1.156793 -0.105163,0.525814 c -0.315489,0.736141 -0.630978,1.472282 -0.946466,2.208423 l -0.31549,0.525814 1.892934,3.470379 -2.103259,2.103259 -3.470379,-1.892933 -0.525814,0.315488 c -0.736142,0.420652 -1.472282,0.736142 -2.208423,0.946468 l -0.525815,0.105163 -1.156792,3.785867 H 16.603989 L 15.447197,29.013221 14.921382,28.908058 C 14.185241,28.592568 13.449101,28.277079 12.71296,27.96159 L 12.187145,27.646102 8.7167666,29.539035 6.6135071,27.435776 8.5064407,23.965397 8.1909517,23.439583 C 7.7702998,22.703442 7.4548109,21.967301 7.244485,21.23116 L 7.139322,20.705346 3.353455,19.548553 V 16.60399 L 6.9289961,15.55236 7.139322,15.026545 C 7.349648,14.185241 7.6651369,13.4491 8.0857888,12.71296 L 8.4012777,12.187145 6.6135071,8.7167666 8.7167666,6.6135071 12.081982,8.5064406 12.607797,8.1909518 c 0.73614,-0.4206519 1.472281,-0.7361409 2.313585,-0.9464668 l 0.525815,-0.210326 1.156792,-3.680704 h 2.944564 l 1.156792,3.680704 0.525815,0.210326 c 0.736141,0.2103259 1.472281,0.5258149 2.208423,0.9464668 l 0.525814,0.3154888 3.470379,-1.8929335 2.103259,2.1032595 -1.892934,3.4703784 0.31549,0.525815 c 0.420652,0.73614 0.73614,1.472281 0.946466,2.208422 l 0.105163,0.525815 3.785867,1.156793 z"
     id="path6"
     style="fill:#f5f5f5;fill-opacity:1;stroke:#f1f1f1;stroke-width:0.52581489;stroke-miterlimit:4;stroke-dasharray:none;stroke-opacity:1"
     inkscape:connector-curvature="0" />
  <rect
     x="0"
     y="0"
     width="36"
     height="36"
     fill-opacity="0"
     id="rect8"
     style="stroke-width:1.6;stroke-miterlimit:4;stroke-dasharray:none" />
</svg>
