<?xml version="1.0" encoding="UTF-8" standalone="no"?>
<!-- Generator: Adobe Illustrator 19.0.0, SVG Export Plug-In . SVG Version: 6.00 Build 0)  -->

<svg
   xmlns:dc="http://purl.org/dc/elements/1.1/"
   xmlns:cc="http://creativecommons.org/ns#"
   xmlns:rdf="http://www.w3.org/1999/02/22-rdf-syntax-ns#"
   xmlns:svg="http://www.w3.org/2000/svg"
   xmlns="http://www.w3.org/2000/svg"
   xmlns:sodipodi="http://sodipodi.sourceforge.net/DTD/sodipodi-0.dtd"
   xmlns:inkscape="http://www.inkscape.org/namespaces/inkscape"
   version="1.1"
   id="Capa_1"
   x="0px"
   y="0px"
   viewBox="0 0 55 55"
   style="enable-background:new 0 0 55 55;"
   xml:space="preserve"
   sodipodi:docname="db.svg"
   inkscape:version="0.92.4 (5da689c313, 2019-01-14)"><metadata
   id="metadata39"><rdf:RDF><cc:Work
       rdf:about=""><dc:format>image/svg+xml</dc:format><dc:type
         rdf:resource="http://purl.org/dc/dcmitype/StillImage" /><dc:title /></cc:Work></rdf:RDF></metadata><defs
   id="defs37" /><sodipodi:namedview
   pagecolor="#ffffff"
   bordercolor="#666666"
   borderopacity="1"
   objecttolerance="10"
   gridtolerance="10"
   guidetolerance="10"
   inkscape:pageopacity="0"
   inkscape:pageshadow="2"
   inkscape:window-width="1920"
   inkscape:window-height="991"
   id="namedview35"
   showgrid="false"
   inkscape:zoom="4.2909091"
   inkscape:cx="-54.533898"
   inkscape:cy="27.5"
   inkscape:window-x="-9"
   inkscape:window-y="-9"
   inkscape:window-maximized="1"
   inkscape:current-layer="Capa_1" />
<path
   d="M 49.17628,11.702208 C 48.166337,8.0017341 40.649323,4.361641 27.5,4.361641 c -13.149323,0 -20.6672089,3.6400931 -21.6762801,7.340567 -0.07326,0.126799 -0.1273331,0.265675 -0.1273331,0.422665 v 0.431291 9.919684 0.431291 0.431291 9.488394 0.431291 0.431291 10.350975 c 0,0.139739 0.037502,0.271713 0.1020409,0.389025 C 6.8284304,48.651741 16.04351,51.803613 27.5,51.803613 c 11.430326,0 20.630579,-3.138933 21.694595,-7.345742 0.06977,-0.123349 0.109018,-0.265675 0.109018,-0.41749 V 33.689406 33.258115 32.826824 23.33843 22.907139 22.475848 12.556164 12.124873 c 0,-0.15699 -0.05407,-0.295866 -0.127333,-0.422665 z m -1.685855,21.974259 c -0.02442,0.104372 -0.05843,0.207882 -0.101169,0.313117 -0.03489,0.0854 -0.07762,0.170791 -0.124717,0.256187 -0.05843,0.106097 -0.123844,0.212195 -0.201465,0.318292 -0.05756,0.08022 -0.122972,0.159578 -0.191,0.238935 -0.09681,0.112998 -0.199721,0.225996 -0.316588,0.338132 -0.07064,0.06814 -0.148265,0.135425 -0.226758,0.203569 -0.143031,0.123349 -0.292168,0.245836 -0.458748,0.36746 -0.07151,0.05262 -0.148264,0.10351 -0.224141,0.155264 -0.197104,0.134563 -0.402931,0.268263 -0.628816,0.399376 -0.05931,0.03536 -0.122972,0.06901 -0.184895,0.103509 -0.259899,0.144914 -0.531136,0.288965 -0.824176,0.428703 -0.0375,0.01811 -0.07675,0.03537 -0.115123,0.05262 -0.327054,0.152677 -0.668935,0.302766 -1.034364,0.447679 -0.01047,0.0043 -0.02093,0.0078 -0.0314,0.01208 -1.98064,0.782362 -4.51422,1.440511 -7.466429,1.871802 -0.01483,0.0017 -0.02965,0.0035 -0.04448,0.006 -0.573871,0.08367 -1.162568,0.157852 -1.766964,0.223409 -0.09855,0.01035 -0.202338,0.01725 -0.301762,0.0276 -0.527648,0.05434 -1.0614,0.104373 -1.610851,0.144051 -0.251178,0.01811 -0.514566,0.02674 -0.770104,0.04227 -0.413396,0.02415 -0.822432,0.05089 -1.246295,0.06556 -0.692482,0.02156 -1.398919,0.03537 -2.120183,0.03537 -0.721263,0 -1.4277,-0.0138 -2.121055,-0.03795 -0.423863,-0.01466 -0.832898,-0.04227 -1.246295,-0.06556 -0.255538,-0.01466 -0.518926,-0.02415 -0.770104,-0.04227 -0.549451,-0.03968 -1.083203,-0.08971 -1.61085,-0.144052 -0.09943,-0.01035 -0.20321,-0.01725 -0.301762,-0.0276 -0.604397,-0.06556 -1.193094,-0.140601 -1.766965,-0.223409 -0.01483,-0.0017 -0.02965,-0.0035 -0.04448,-0.006 -2.952209,-0.43129 -5.485789,-1.08944 -7.466429,-1.871801 -0.01047,-0.0035 -0.02093,-0.0078 -0.0314,-0.01208 -0.365426,-0.144923 -0.708179,-0.295012 -1.034361,-0.447689 -0.0375,-0.01811 -0.07762,-0.03537 -0.115123,-0.05262 -0.29304,-0.139738 -0.564277,-0.282926 -0.824176,-0.428702 -0.06105,-0.0345 -0.125589,-0.06814 -0.184895,-0.10351 C 9.7562196,36.133098 9.5503935,35.999398 9.3532888,35.864836 9.2782844,35.813081 9.2006635,35.762188 9.1291476,35.709571 8.962568,35.587947 8.8134313,35.46546 8.6703996,35.342111 8.5927788,35.27483 8.5142857,35.207549 8.443642,35.138542 8.3267747,35.026407 8.2238616,34.914271 8.1270536,34.80041 8.0590263,34.721053 7.9936155,34.641695 7.9360539,34.561475 7.8593052,34.455378 7.7938944,34.34928 7.7345885,34.243183 c -0.047096,-0.0854 -0.088959,-0.170791 -0.1247166,-0.256187 -0.042735,-0.104372 -0.076749,-0.208745 -0.1011688,-0.313117 -0.032269,-0.13715 -0.068027,-0.276889 -0.068027,-0.415764 0,-0.09747 0.011338,-0.194943 0.027037,-0.291553 0.021804,-0.130249 0.00959,-0.260499 -0.027037,-0.383848 V 26.17891 c 0.02442,0.02243 0.054945,0.04399 0.080237,0.06642 0.1901275,0.165615 0.3837436,0.330368 0.6017798,0.489083 3.2853681,2.457495 9.8552331,4.36725 19.3773071,4.36725 9.481955,0 16.035249,-1.894229 19.334572,-4.337059 0.263388,-0.189768 0.500611,-0.385574 0.72388,-0.58483 l 8.72e-4,-8.63e-4 v 6.403804 c -0.03663,0.123349 -0.04884,0.253599 -0.02704,0.383848 0.01657,0.09661 0.02704,0.194081 0.02704,0.291553 0,0.138875 -0.03576,0.278614 -0.0689,0.418352 z m 0.0689,-17.848533 v 6.403804 c -0.03663,0.123349 -0.04884,0.253599 -0.02704,0.383849 0.01657,0.09661 0.02704,0.19408 0.02704,0.291552 0,0.138876 -0.03576,0.278614 -0.0689,0.418352 -0.02442,0.104372 -0.05843,0.207882 -0.101169,0.313117 -0.03489,0.0854 -0.07762,0.170791 -0.124717,0.256187 -0.05843,0.106097 -0.123844,0.212195 -0.201465,0.318292 -0.05756,0.08022 -0.122972,0.159578 -0.191,0.238935 -0.09681,0.112998 -0.199721,0.225997 -0.316588,0.338132 -0.07064,0.06814 -0.148265,0.135425 -0.226758,0.203569 -0.143031,0.123349 -0.292168,0.245836 -0.458748,0.36746 -0.07151,0.05262 -0.148264,0.10351 -0.224141,0.155265 -0.197104,0.134562 -0.402931,0.268262 -0.628816,0.399375 -0.05931,0.03537 -0.122972,0.06901 -0.184895,0.10351 -0.259899,0.144913 -0.531136,0.288964 -0.824176,0.428702 -0.0375,0.01812 -0.07675,0.03537 -0.115123,0.05262 -0.327054,0.152677 -0.668935,0.302766 -1.034364,0.44768 -0.01047,0.0043 -0.02093,0.0078 -0.0314,0.01208 -1.98064,0.782361 -4.51422,1.440511 -7.466429,1.871801 -0.01483,0.0017 -0.02965,0.0035 -0.04448,0.006 -0.573871,0.08367 -1.162568,0.157853 -1.766964,0.223409 -0.09855,0.01035 -0.202338,0.01725 -0.301762,0.0276 -0.527648,0.05434 -1.0614,0.104373 -1.610851,0.144051 -0.251178,0.01811 -0.514566,0.02674 -0.770104,0.04227 -0.413396,0.02415 -0.822432,0.05089 -1.246295,0.06556 -0.692482,0.02156 -1.398919,0.03537 -2.120183,0.03537 -0.721263,0 -1.4277,-0.0138 -2.121055,-0.03795 -0.423863,-0.01466 -0.832898,-0.04227 -1.246295,-0.06556 -0.255538,-0.01466 -0.518926,-0.02415 -0.770104,-0.04227 -0.549451,-0.03968 -1.083203,-0.08971 -1.61085,-0.144051 -0.09943,-0.01035 -0.20321,-0.01725 -0.301762,-0.0276 -0.604397,-0.06556 -1.193094,-0.140601 -1.766965,-0.223408 -0.01483,-0.0017 -0.02965,-0.0035 -0.04448,-0.006 -2.952209,-0.43129 -5.485789,-1.08944 -7.466429,-1.871801 -0.01047,-0.0035 -0.02093,-0.0078 -0.0314,-0.01208 -0.365426,-0.144925 -0.708179,-0.295014 -1.034361,-0.447691 -0.0375,-0.01811 -0.07762,-0.03537 -0.115123,-0.05262 -0.29304,-0.139738 -0.564277,-0.282927 -0.824176,-0.428703 -0.06105,-0.0345 -0.125589,-0.06814 -0.184895,-0.10351 C 9.7562196,25.782123 9.5503935,25.648423 9.3532888,25.51386 9.2782844,25.462105 9.2006635,25.411213 9.1291476,25.358595 8.962568,25.236971 8.8134313,25.114485 8.6703996,24.991136 8.5927788,24.923854 8.5142857,24.856573 8.443642,24.787566 8.3267747,24.675431 8.2238616,24.563295 8.1270536,24.449435 8.0590263,24.370077 7.9936155,24.29072 7.9360539,24.210499 7.8593052,24.104402 7.7938944,23.998304 7.7345885,23.892207 7.6874927,23.806811 7.6456298,23.721416 7.6098719,23.63602 7.5671368,23.531648 7.5331232,23.427276 7.5087031,23.322903 c -0.032269,-0.13715 -0.068027,-0.276888 -0.068027,-0.415764 0,-0.09747 0.011338,-0.194943 0.027037,-0.291552 0.021804,-0.13025 0.00959,-0.2605 -0.027037,-0.383849 v -6.403804 c 0.1046574,0.09402 0.2241412,0.186318 0.33752,0.279477 0.062794,0.05175 0.1212281,0.103509 0.187511,0.155264 0.2616434,0.203569 0.5442182,0.404551 0.850341,0.600357 0.063666,0.04054 0.1351824,0.08022 0.2014653,0.120761 0.2564105,0.157853 0.5276475,0.312255 0.8128387,0.464069 0.1055295,0.05607 0.2110589,0.111273 0.3200769,0.166478 0.318333,0.16044 0.652364,0.316568 1.003838,0.467519 0.05756,0.02501 0.109891,0.05089 0.168324,0.07504 0.409036,0.171654 0.843364,0.335544 1.295135,0.494259 0.124717,0.04399 0.255538,0.0854 0.383744,0.128525 0.359323,0.119898 0.730857,0.234622 1.115472,0.345895 0.138671,0.03968 0.274726,0.08108 0.416885,0.119036 0.510205,0.139738 1.03698,0.272576 1.58992,0.395062 0.07588,0.01725 0.157858,0.03105 0.234607,0.04744 0.487529,0.105235 0.993372,0.202707 1.513171,0.29414 0.176173,0.03105 0.354962,0.06038 0.534624,0.08971 0.494506,0.08022 1.003838,0.153539 1.526253,0.220821 0.13431,0.01725 0.262516,0.03709 0.39857,0.05348 0.648876,0.07763 1.320427,0.144051 2.010293,0.200981 0.170068,0.0138 0.347114,0.02415 0.519798,0.03623 0.552068,0.03968 1.116345,0.07246 1.693705,0.09833 0.210187,0.0095 0.419502,0.01898 0.634049,0.02674 0.751789,0.02501 1.517532,0.04313 2.311183,0.04313 0.793652,0 1.559395,-0.01811 2.311183,-0.04313 0.213676,-0.0078 0.42299,-0.01725 0.634049,-0.02674 0.57736,-0.02588 1.141637,-0.05866 1.693705,-0.09833 0.172685,-0.01294 0.348858,-0.02243 0.519798,-0.03623 0.689866,-0.05607 1.361418,-0.123349 2.010293,-0.200981 0.136055,-0.01639 0.26426,-0.03623 0.39857,-0.05348 0.522415,-0.06728 1.030875,-0.140601 1.526253,-0.220821 0.179662,-0.02933 0.358452,-0.05866 0.534625,-0.08971 0.519798,-0.09143 1.025642,-0.188905 1.513171,-0.29414 0.07675,-0.01639 0.15873,-0.03105 0.234606,-0.04744 0.55294,-0.122486 1.079715,-0.256187 1.58992,-0.395062 0.142159,-0.03882 0.278214,-0.07936 0.416885,-0.119036 0.384616,-0.111273 0.756149,-0.225997 1.115473,-0.345895 0.128205,-0.04313 0.259027,-0.08453 0.383743,-0.128525 0.451771,-0.158715 0.886971,-0.322605 1.295135,-0.494259 0.05843,-0.02415 0.110762,-0.05003 0.168324,-0.07504 0.351474,-0.151814 0.685506,-0.307079 1.003838,-0.467519 0.109018,-0.05521 0.21542,-0.11041 0.320077,-0.166478 0.285192,-0.150952 0.556429,-0.305354 0.812839,-0.464069 0.06628,-0.04054 0.137799,-0.08022 0.201465,-0.120761 0.306123,-0.195806 0.588698,-0.395925 0.850341,-0.600357 0.06541,-0.05175 0.123845,-0.103509 0.187511,-0.155264 0.113379,-0.09316 0.232863,-0.185455 0.337521,-0.279477 z M 27.5,6.0868036 c 11.821919,0 20.059324,3.4089214 20.059324,6.4693604 0,3.060438 -8.237405,6.469359 -20.059324,6.469359 -11.821919,0 -20.0593242,-3.408921 -20.0593242,-6.469359 0,-3.060439 8.2374052,-6.4693604 20.0593242,-6.4693604 z M 47.559324,43.784195 c -0.01221,0.03795 -0.02093,0.07677 -0.02791,0.116448 -0.494506,2.983669 -8.66214,6.177808 -20.031416,6.177808 -11.369276,0 -19.5369096,-3.194139 -20.0314155,-6.177808 -0.00698,-0.03882 -0.016571,-0.07677 -0.027909,-0.112998 v -7.257759 c 0.02442,0.02243 0.054945,0.04399 0.080237,0.06642 0.1901275,0.165615 0.3837436,0.330368 0.6017798,0.489083 3.2853687,2.457494 9.8552327,4.367249 19.3773067,4.367249 9.481955,0 16.035249,-1.894228 19.334572,-4.337058 0.263388,-0.189768 0.500611,-0.385574 0.72388,-0.584831 l 8.72e-4,-8.62e-4 v 7.254309 z"
   id="path2"
   style="fill:#4b4b4b;fill-opacity:1;stroke:#4b4b4b;stroke-width:2.867;stroke-opacity:1;stroke-miterlimit:4;stroke-dasharray:none"
   inkscape:connector-curvature="0" />
<g
   id="g4"
   style="fill:#f5f5f5;fill-opacity:1;stroke:#f5f5f5;stroke-opacity:1"
   transform="matrix(0.87214453,0,0,0.86258131,3.5160254,4.361641)">
</g>
<g
   id="g6"
   style="fill:#f5f5f5;fill-opacity:1;stroke:#f5f5f5;stroke-opacity:1"
   transform="matrix(0.87214453,0,0,0.86258131,3.5160254,4.361641)">
</g>
<g
   id="g8"
   style="fill:#f5f5f5;fill-opacity:1;stroke:#f5f5f5;stroke-opacity:1"
   transform="matrix(0.87214453,0,0,0.86258131,3.5160254,4.361641)">
</g>
<g
   id="g10"
   style="fill:#f5f5f5;fill-opacity:1;stroke:#f5f5f5;stroke-opacity:1"
   transform="matrix(0.87214453,0,0,0.86258131,3.5160254,4.361641)">
</g>
<g
   id="g12"
   style="fill:#f5f5f5;fill-opacity:1;stroke:#f5f5f5;stroke-opacity:1"
   transform="matrix(0.87214453,0,0,0.86258131,3.5160254,4.361641)">
</g>
<g
   id="g14"
   style="fill:#f5f5f5;fill-opacity:1;stroke:#f5f5f5;stroke-opacity:1"
   transform="matrix(0.87214453,0,0,0.86258131,3.5160254,4.361641)">
</g>
<g
   id="g16"
   style="fill:#f5f5f5;fill-opacity:1;stroke:#f5f5f5;stroke-opacity:1"
   transform="matrix(0.87214453,0,0,0.86258131,3.5160254,4.361641)">
</g>
<g
   id="g18"
   style="fill:#f5f5f5;fill-opacity:1;stroke:#f5f5f5;stroke-opacity:1"
   transform="matrix(0.87214453,0,0,0.86258131,3.5160254,4.361641)">
</g>
<g
   id="g20"
   style="fill:#f5f5f5;fill-opacity:1;stroke:#f5f5f5;stroke-opacity:1"
   transform="matrix(0.87214453,0,0,0.86258131,3.5160254,4.361641)">
</g>
<g
   id="g22"
   style="fill:#f5f5f5;fill-opacity:1;stroke:#f5f5f5;stroke-opacity:1"
   transform="matrix(0.87214453,0,0,0.86258131,3.5160254,4.361641)">
</g>
<g
   id="g24"
   style="fill:#f5f5f5;fill-opacity:1;stroke:#f5f5f5;stroke-opacity:1"
   transform="matrix(0.87214453,0,0,0.86258131,3.5160254,4.361641)">
</g>
<g
   id="g26"
   style="fill:#f5f5f5;fill-opacity:1;stroke:#f5f5f5;stroke-opacity:1"
   transform="matrix(0.87214453,0,0,0.86258131,3.5160254,4.361641)">
</g>
<g
   id="g28"
   style="fill:#f5f5f5;fill-opacity:1;stroke:#f5f5f5;stroke-opacity:1"
   transform="matrix(0.87214453,0,0,0.86258131,3.5160254,4.361641)">
</g>
<g
   id="g30"
   style="fill:#f5f5f5;fill-opacity:1;stroke:#f5f5f5;stroke-opacity:1"
   transform="matrix(0.87214453,0,0,0.86258131,3.5160254,4.361641)">
</g>
<g
   id="g32"
   style="fill:#f5f5f5;fill-opacity:1;stroke:#f5f5f5;stroke-opacity:1"
   transform="matrix(0.87214453,0,0,0.86258131,3.5160254,4.361641)">
</g>
</svg>