<?xml version="1.0" encoding="UTF-8" standalone="no"?>
<svg
   xmlns:dc="http://purl.org/dc/elements/1.1/"
   xmlns:cc="http://creativecommons.org/ns#"
   xmlns:rdf="http://www.w3.org/1999/02/22-rdf-syntax-ns#"
   xmlns:svg="http://www.w3.org/2000/svg"
   xmlns="http://www.w3.org/2000/svg"
   xmlns:sodipodi="http://sodipodi.sourceforge.net/DTD/sodipodi-0.dtd"
   xmlns:inkscape="http://www.inkscape.org/namespaces/inkscape"
   viewBox="0 0 50 50"
   version="1.1"
   id="svg4"
   sodipodi:docname="full.svg"
   inkscape:version="0.92.4 (5da689c313, 2019-01-14)">
  <metadata
     id="metadata10">
    <rdf:RDF>
      <cc:Work
         rdf:about="">
        <dc:format>image/svg+xml</dc:format>
        <dc:type
           rdf:resource="http://purl.org/dc/dcmitype/StillImage" />
        <dc:title />
      </cc:Work>
    </rdf:RDF>
  </metadata>
  <defs
     id="defs8" />
  <sodipodi:namedview
     pagecolor="#ffffff"
     bordercolor="#666666"
     borderopacity="1"
     objecttolerance="10"
     gridtolerance="10"
     guidetolerance="10"
     inkscape:pageopacity="0"
     inkscape:pageshadow="2"
     inkscape:window-width="1920"
     inkscape:window-height="991"
     id="namedview6"
     showgrid="false"
     inkscape:zoom="13.350176"
     inkscape:cx="15.677966"
     inkscape:cy="22.881356"
     inkscape:window-x="-9"
     inkscape:window-y="-9"
     inkscape:window-maximized="1"
     inkscape:current-layer="svg4" />
  <path
     style="line-height:normal;text-indent:0;text-align:start;text-decoration:none;text-decoration-line:none;text-decoration-style:solid;text-decoration-color:#000000;text-transform:none;isolation:auto;mix-blend-mode:normal;fill:#000000;fill-opacity:1"
     d="M 6.0438784,5.9047143 V 16.904716 c -0.03825,2.704645 4.0382506,2.704645 3.9999996,0 V 12.73284 C 9.9537284,9.8908367 9.8796813,9.9149587 12.872004,9.9047147 h 4.171875 c 2.704645,0.03825 2.704645,-4.0382508 0,-4.0000004 z m 27.0000006,0 c -2.704645,-0.03825 -2.704645,4.0382504 0,4.0000004 h 4.171875 c 3.077623,0.1215673 2.943515,-0.147437 2.828125,2.8281253 v 4.171876 c -0.03825,2.704645 4.03825,2.704645 4,0 V 5.9047143 Z M 10.043878,37.076591 V 32.904716 C 10.059291,31.777955 9.1413271,30.860874 8.0145815,30.877372 6.910782,30.893552 6.028779,31.800901 6.0438784,32.904716 v 11 H 17.043879 c 2.704645,0.03825 2.704645,-4.03825 0,-4 h -4.171875 c -2.775507,0.05697 -2.765888,0.04957 -2.828126,-2.828125 z m 27.171876,2.828125 h -4.171875 c -2.704645,-0.03825 -2.704645,4.03825 0,4 h 11 v -11 c 0.01541,-1.126761 -0.902551,-2.043842 -2.029297,-2.027344 -1.103799,0.01618 -1.985802,0.923529 -1.970703,2.027344 v 4.171875 c 0.118645,2.800711 0.100016,3.002027 -2.828125,2.828125 z"
     id="path2-9"
     inkscape:connector-curvature="0"
     sodipodi:nodetypes="cccccccccccccccccccccccccccccccccc" />
</svg>
