<?xml version="1.0" encoding="UTF-8" standalone="no"?>
<!-- Generator: Adobe Illustrator 19.1.0, SVG Export Plug-In . SVG Version: 6.00 Build 0)  -->

<svg
   xmlns:dc="http://purl.org/dc/elements/1.1/"
   xmlns:cc="http://creativecommons.org/ns#"
   xmlns:rdf="http://www.w3.org/1999/02/22-rdf-syntax-ns#"
   xmlns:svg="http://www.w3.org/2000/svg"
   xmlns="http://www.w3.org/2000/svg"
   xmlns:sodipodi="http://sodipodi.sourceforge.net/DTD/sodipodi-0.dtd"
   xmlns:inkscape="http://www.inkscape.org/namespaces/inkscape"
   version="1.1"
   id="Capa_1"
   x="0px"
   y="0px"
   viewBox="0 0 489.25 489.25"
   style="enable-background:new 0 0 489.25 489.25;"
   xml:space="preserve"
   sodipodi:docname="goal_w.svg"
   inkscape:version="0.92.4 (5da689c313, 2019-01-14)"><metadata
   id="metadata47"><rdf:RDF><cc:Work
       rdf:about=""><dc:format>image/svg+xml</dc:format><dc:type
         rdf:resource="http://purl.org/dc/dcmitype/StillImage" /><dc:title></dc:title></cc:Work></rdf:RDF></metadata><defs
   id="defs45" /><sodipodi:namedview
   pagecolor="#ffffff"
   bordercolor="#666666"
   borderopacity="1"
   objecttolerance="10"
   gridtolerance="10"
   guidetolerance="10"
   inkscape:pageopacity="0"
   inkscape:pageshadow="2"
   inkscape:window-width="1920"
   inkscape:window-height="991"
   id="namedview43"
   showgrid="false"
   inkscape:zoom="0.48237098"
   inkscape:cx="244.625"
   inkscape:cy="244.625"
   inkscape:window-x="-9"
   inkscape:window-y="-9"
   inkscape:window-maximized="1"
   inkscape:current-layer="Capa_1" />
<g
   id="g10"
   style="fill:#fafafa;fill-opacity:1">
	<g
   id="g8"
   style="fill:#fafafa;fill-opacity:1">
		<path
   d="M240.25,216.55c-4-1.1-8.1-1.7-12.4-1.7c-25.7,0-46.6,20.9-46.6,46.6c0,25.7,20.9,46.6,46.6,46.6s46.6-20.9,46.6-46.6    c0-4.3-0.6-8.5-1.7-12.4l129.8-129.8l21,2.8l65.7-65.7l-49.7-6.6l-6.6-49.7l-65.7,65.7l2.8,21L240.25,216.55z"
   id="path2"
   style="fill:#fafafa;fill-opacity:1" />
		<path
   d="M232.85,171.95l38.4-38.4c-47.1-16-101.4-5.2-138.9,32.4c-52.7,52.7-52.7,138.3,0,191s138.3,52.7,191,0    c37.6-37.6,48.4-91.8,32.4-139l-38.4,38.4c1.4,24.6-7.3,49.7-26.1,68.5c-35,35-91.8,35-126.8,0s-35-91.8,0-126.8    C183.25,179.25,208.25,170.55,232.85,171.95z"
   id="path4"
   style="fill:#fafafa;fill-opacity:1" />
		<path
   d="M388.85,184.95c31.5,66.2,19.8,147.7-35,202.5c-69.6,69.6-182.4,69.6-252,0s-69.6-182.4,0-252    c54.8-54.8,136.3-66.4,202.5-35l36.7-36.7c-87-49.9-200-37.7-274.3,36.6c-89,89-89,233.2,0,322.1c89,89,233.2,89,322.1,0    c74.3-74.3,86.5-187.3,36.6-274.3L388.85,184.95z"
   id="path6"
   style="fill:#fafafa;fill-opacity:1" />
	</g>
</g>
<g
   id="g12"
   style="fill:#fafafa;fill-opacity:1">
</g>
<g
   id="g14"
   style="fill:#fafafa;fill-opacity:1">
</g>
<g
   id="g16"
   style="fill:#fafafa;fill-opacity:1">
</g>
<g
   id="g18"
   style="fill:#fafafa;fill-opacity:1">
</g>
<g
   id="g20"
   style="fill:#fafafa;fill-opacity:1">
</g>
<g
   id="g22"
   style="fill:#fafafa;fill-opacity:1">
</g>
<g
   id="g24"
   style="fill:#fafafa;fill-opacity:1">
</g>
<g
   id="g26"
   style="fill:#fafafa;fill-opacity:1">
</g>
<g
   id="g28"
   style="fill:#fafafa;fill-opacity:1">
</g>
<g
   id="g30"
   style="fill:#fafafa;fill-opacity:1">
</g>
<g
   id="g32"
   style="fill:#fafafa;fill-opacity:1">
</g>
<g
   id="g34"
   style="fill:#fafafa;fill-opacity:1">
</g>
<g
   id="g36"
   style="fill:#fafafa;fill-opacity:1">
</g>
<g
   id="g38"
   style="fill:#fafafa;fill-opacity:1">
</g>
<g
   id="g40"
   style="fill:#fafafa;fill-opacity:1">
</g>
</svg>