<?xml version="1.0" encoding="UTF-8" standalone="no"?>
<svg
   xmlns:dc="http://purl.org/dc/elements/1.1/"
   xmlns:cc="http://creativecommons.org/ns#"
   xmlns:rdf="http://www.w3.org/1999/02/22-rdf-syntax-ns#"
   xmlns:svg="http://www.w3.org/2000/svg"
   xmlns="http://www.w3.org/2000/svg"
   xmlns:sodipodi="http://sodipodi.sourceforge.net/DTD/sodipodi-0.dtd"
   xmlns:inkscape="http://www.inkscape.org/namespaces/inkscape"
   version="1.1"
   id="Layer_1"
   x="0px"
   y="0px"
   viewBox="0 0 129.94736 121.42169"
   xml:space="preserve"
   sodipodi:docname="import-export.svg"
   inkscape:version="0.92.4 (5da689c313, 2019-01-14)"
   width="129.94736"
   height="121.42169"><metadata
     id="metadata11"><rdf:RDF><cc:Work
         rdf:about=""><dc:format>image/svg+xml</dc:format><dc:type
           rdf:resource="http://purl.org/dc/dcmitype/StillImage" /><dc:title></dc:title></cc:Work></rdf:RDF></metadata><defs
     id="defs9" /><sodipodi:namedview
     pagecolor="#ffffff"
     bordercolor="#666666"
     borderopacity="1"
     objecttolerance="10"
     gridtolerance="10"
     guidetolerance="10"
     inkscape:pageopacity="0"
     inkscape:pageshadow="2"
     inkscape:window-width="1920"
     inkscape:window-height="991"
     id="namedview7"
     showgrid="false"
     inkscape:zoom="3.401492"
     inkscape:cx="-10.291036"
     inkscape:cy="58.425099"
     inkscape:window-x="-9"
     inkscape:window-y="-9"
     inkscape:window-maximized="1"
     inkscape:current-layer="Layer_1" /><path
     inkscape:connector-curvature="0"
     style="fill:#8c8c8c;stroke:#282828;stroke-width:4;stroke-miterlimit:4;stroke-dasharray:none;stroke-opacity:1;fill-opacity:0.35294119"
     id="path2"
     d="m 54.111039,88.808158 h 33.53 v 0.17 c -0.01,0.08 -0.01,0.15 -0.01,0.23 v 9.06 c 0,1.43 0.21,2.570002 0.59,3.460002 0.54,1.24 1.37,2.01 2.42,2.39 0.96,0.35 2,0.32 3.07,0 1.19,-0.36 2.46,-1.1 3.67,-2.05 L 122.13104,80.108158 c 1.31,-1.03 2.29,-2.23 2.6,-3.63 0.35,-1.59 -0.11,-3.18 -1.79,-4.7 l -0.14,-0.12 c -10.09,-7.93 -17.05,-15.86 -27.150001,-23.78 -0.18,-0.14 -0.38,-0.25 -0.61,-0.33 -2.09,-0.71 -3.79,-0.63 -5.08,0.23 -1.29,0.85 -1.97,2.32 -2.06,4.39 -0.01,0.07 -0.01,0.16 -0.01,0.24 v 9.61 l 0.01,0.26 -45.011153,-0.122534 0.01,0.26 v 9.61 c 0,0.08 0,0.16 -0.01,0.24 -0.09,2.07 -0.77,3.54 -2.06,4.39 -1.29,0.86 -2.99,0.94 -5.08,0.23 -0.23,-0.08 -0.43,-0.19 -0.61,-0.33 -10.1,-7.92 -17.06,-15.84 -27.1599996,-23.77 l -0.14,-0.12 c -1.68,-1.52 -2.14,-3.11 -1.79,-4.7 0.31,-1.4 1.29,-2.6 2.5999996,-3.63 l 24.76,-21.97 c 1.21,-0.95 2.48,-1.69 3.67,-2.05 1.07,-0.32 2.11,-0.35 3.07,0 1.05,0.38 1.88,1.15 2.42,2.39 0.38,0.89 0.59,2.03 0.59,3.46 v 9.05 c 0,0.09 0,0.16 -0.01,0.23 v 0.17 h 33.53"
     sodipodi:nodetypes="cccssccccccccccccsccccsccccccccccccssccc" /></svg>