<?xml version="1.0" encoding="UTF-8" standalone="no"?>
<!-- Generator: Adobe Illustrator 16.0.0, SVG Export Plug-In . SVG Version: 6.00 Build 0)  -->

<svg
   xmlns:dc="http://purl.org/dc/elements/1.1/"
   xmlns:cc="http://creativecommons.org/ns#"
   xmlns:rdf="http://www.w3.org/1999/02/22-rdf-syntax-ns#"
   xmlns:svg="http://www.w3.org/2000/svg"
   xmlns="http://www.w3.org/2000/svg"
   xmlns:sodipodi="http://sodipodi.sourceforge.net/DTD/sodipodi-0.dtd"
   xmlns:inkscape="http://www.inkscape.org/namespaces/inkscape"
   version="1.1"
   id="Capa_1"
   x="0px"
   y="0px"
   width="512px"
   height="512px"
   viewBox="0 0 49.771 49.771"
   style="enable-background:new 0 0 49.771 49.771;"
   xml:space="preserve"
   sodipodi:docname="key.svg"
   inkscape:version="0.92.4 (5da689c313, 2019-01-14)"><metadata
     id="metadata41"><rdf:RDF><cc:Work
         rdf:about=""><dc:format>image/svg+xml</dc:format><dc:type
           rdf:resource="http://purl.org/dc/dcmitype/StillImage" /><dc:title /></cc:Work></rdf:RDF></metadata><defs
     id="defs39" /><sodipodi:namedview
     pagecolor="#ffffff"
     bordercolor="#666666"
     borderopacity="1"
     objecttolerance="10"
     gridtolerance="10"
     guidetolerance="10"
     inkscape:pageopacity="0"
     inkscape:pageshadow="2"
     inkscape:window-width="1920"
     inkscape:window-height="991"
     id="namedview37"
     showgrid="false"
     inkscape:pagecheckerboard="true"
     inkscape:zoom="1.84375"
     inkscape:cx="65.084743"
     inkscape:cy="256"
     inkscape:window-x="-9"
     inkscape:window-y="-9"
     inkscape:window-maximized="1"
     inkscape:current-layer="Capa_1" /><g
     id="g4"
     transform="matrix(0,-0.95,0.95,0,0.18932966,48.579949)"
     style="fill:#808080;fill-opacity:1"><path
       d="m 24.884,0 c -6.65,0 -12.041,5.392 -12.041,12.042 0,4.766 2.775,8.872 6.791,10.824 v 2.821 h 2.167 v 0.043 l -2.188,2.4 2.188,1.641 v 0.572 l -2.292,2.477 2.292,1.736 v 0.474 l -2.292,1.978 2.292,1.916 v 0.791 l -2.083,2.146 2.083,2.812 v 1.229 l -2.014508,1.610483 1.681517,1.592536 2.297969,2.552928 L 23.885,49.771 V 25.688 h 1.209 v 24.084 l 0.01402,2.164439 L 28.719,48.162545 V 25.688 h 1.416 V 22.867 C 34.152,20.915 36.928,16.808 36.928,12.043 36.927,5.392 31.535,0 24.884,0 Z m 0,9.667 c -1.795,0 -3.25,-1.455 -3.25,-3.25 0,-1.795 1.455,-3.25 3.25,-3.25 1.795,0 3.25,1.455 3.25,3.25 0,1.795 -1.455,3.25 -3.25,3.25 z"
       id="path2"
       inkscape:connector-curvature="0"
       style="fill:#808080;fill-opacity:1"
       sodipodi:nodetypes="sscccccccccccccccccccccccccccccssssss" /></g><g
     id="g6" /><g
     id="g8" /><g
     id="g10" /><g
     id="g12" /><g
     id="g14" /><g
     id="g16" /><g
     id="g18" /><g
     id="g20" /><g
     id="g22" /><g
     id="g24" /><g
     id="g26" /><g
     id="g28" /><g
     id="g30" /><g
     id="g32" /><g
     id="g34" /></svg>