<?xml version="1.0" encoding="UTF-8" standalone="no"?>
<svg
   xmlns:dc="http://purl.org/dc/elements/1.1/"
   xmlns:cc="http://creativecommons.org/ns#"
   xmlns:rdf="http://www.w3.org/1999/02/22-rdf-syntax-ns#"
   xmlns:svg="http://www.w3.org/2000/svg"
   xmlns="http://www.w3.org/2000/svg"
   xmlns:sodipodi="http://sodipodi.sourceforge.net/DTD/sodipodi-0.dtd"
   xmlns:inkscape="http://www.inkscape.org/namespaces/inkscape"
   version="1.1"
   x="0"
   y="0"
   width="715.263"
   height="253.71953"
   viewBox="0 0 715.263 253.71953"
   id="svg35"
   sodipodi:docname="logo_w.svg"
   inkscape:version="0.92.4 (5da689c313, 2019-01-14)">
  <metadata
     id="metadata41">
    <rdf:RDF>
      <cc:Work
         rdf:about="">
        <dc:format>image/svg+xml</dc:format>
        <dc:type
           rdf:resource="http://purl.org/dc/dcmitype/StillImage" />
        <dc:title></dc:title>
      </cc:Work>
    </rdf:RDF>
  </metadata>
  <defs
     id="defs39" />
  <sodipodi:namedview
     pagecolor="#ffffff"
     bordercolor="#666666"
     borderopacity="1"
     objecttolerance="10"
     gridtolerance="10"
     guidetolerance="10"
     inkscape:pageopacity="0"
     inkscape:pageshadow="2"
     inkscape:window-width="1920"
     inkscape:window-height="991"
     id="namedview37"
     showgrid="false"
     inkscape:zoom="0.921875"
     inkscape:cx="384.69"
     inkscape:cy="-10.094466"
     inkscape:window-x="-9"
     inkscape:window-y="-9"
     inkscape:window-maximized="1"
     inkscape:current-layer="svg35" />
  <g
     id="g10"
     transform="translate(-298.31,-248.186)"
     style="stroke:none;stroke-opacity:1;fill:#ffffff;fill-opacity:1">
    <path
       style="fill:#ffffff;stroke:none;stroke-opacity:1;fill-opacity:1"
       inkscape:connector-curvature="0"
       id="path2"
       d="m 419.394,288.825 -21.964,0.048 c 0,0 -0.132,63.424 -0.132,63.444 0.764,33.288 21.808,60.092 55.184,60.092 14.904,0 28.536,-4.984 39.156,-13.852 l 0.004,0.208 22.024,13.8 -0.02,-59.24 c 0.024,-0.608 0.104,-1.2 0.112,-1.812 h -0.112 l -0.024,-62.62 -21.984,0.044 v 64.88 c -1.536,20.328 -18.384,36.36 -39.044,36.36 -21.44,0 -32.96,-17.272 -33.336,-38.688 z" />
    <path
       style="fill:#ffffff;stroke:none;stroke-opacity:1;fill-opacity:1"
       inkscape:connector-curvature="0"
       id="path4"
       d="m 550.494,289.341 -21.56,13.256 -0.244,46.744 c -0.012,0.412 -0.064,0.816 -0.068,1.232 h 0.068 l -0.336,62.104 22.14,0.088 v -63.2 c 0.664,-21.1 12.18,-37.3 36.988,-37.412 14.928,-0.064 32.252,10.176 32.468,38.464 l -0.02,62.192 21.896,0.048 0.064,-62.484 c 0.62,-36.636 -20.944,-61.256 -54.252,-60.876 -14.38,0.164 -27.164,5.036 -37.144,13.388 z" />
    <path
       style="fill:#ffffff;stroke:none;stroke-opacity:1;fill-opacity:1"
       inkscape:connector-curvature="0"
       id="path6"
       d="m 751.058,289.298 0.256,11.692 c -9.992,-7.096 -22.148,-11.352 -35.328,-11.352 -33.856,0 -61.296,27.523 -61.296,61.479 0,33.957 27.44,61.477 61.296,61.477 13.208,0 25.436,-4.18 35.44,-11.304 l -0.388,0.088 22.376,11.328 -0.236,-123.388 z m -34.96,22.572 c 21.676,0 39.248,17.62 39.248,39.359 0,21.737 -17.572,39.357 -39.248,39.357 -21.672,0 -39.244,-17.62 -39.244,-39.357 0,-21.739 17.572,-39.359 39.244,-39.359 z" />
    <path
       style="fill:#ffffff;stroke:none;stroke-opacity:1;fill-opacity:1"
       inkscape:connector-curvature="0"
       id="path8"
       d="m 320.382,249.221 -22.072,0.048 0.312,163.296 96.424,0.024 0.024,-22.076 -74.484,-0.068 z" />
  </g>
  <g
     id="g28"
     transform="translate(-298.31,-248.186)">
    <path
       style="fill:#0a94d6"
       inkscape:connector-curvature="0"
       id="path12"
       d="m 391.926,500.097 h -8.38 v -8.028 c -6.14,6.556 -13.228,9.836 -21.264,9.836 -8.036,0 -14.88,-2.844 -20.536,-8.528 -5.656,-5.688 -8.484,-12.512 -8.484,-20.472 0,-7.96 2.86,-14.768 8.588,-20.42 5.724,-5.652 12.708,-8.48 20.952,-8.48 8.24,0 15.156,3.244 20.744,9.736 v -28.9 h 8.38 z m -28.972,-5.92 c 5.452,0 10.312,-1.972 14.592,-5.92 4.276,-3.948 6.412,-8.948 6.412,-15 0,-6.056 -1.984,-11.104 -5.948,-15.152 -3.968,-4.048 -8.968,-6.072 -15.004,-6.072 -6.036,0 -11.068,2.092 -15.104,6.272 -4.036,4.18 -6.052,9.1 -6.052,14.752 0,5.652 2.068,10.584 6.208,14.8 4.136,4.212 9.104,6.32 14.896,6.32 z" />
    <path
       style="fill:#0a94d6"
       inkscape:connector-curvature="0"
       id="path14"
       d="m 462.078,474.209 h -49.46 c 0.348,6.02 2.432,10.856 6.26,14.5 3.828,3.644 8.4,5.468 13.712,5.468 9.036,0 15.932,-4.312 20.692,-12.944 l 7.244,3.612 c -3.244,5.82 -7.072,10.12 -11.488,12.896 -4.412,2.776 -9.688,4.164 -15.828,4.164 -8.484,0 -15.488,-2.828 -21.004,-8.48 -5.52,-5.652 -8.276,-12.46 -8.276,-20.42 0,-7.96 2.776,-14.784 8.328,-20.468 5.552,-5.688 12.432,-8.532 20.64,-8.532 8.208,0 15.072,2.696 20.592,8.08 5.516,5.384 8.38,12.76 8.588,22.124 z m -9.52,-7.324 c -1.036,-4.684 -3.38,-8.328 -7.036,-10.936 -3.656,-2.612 -7.864,-3.916 -12.624,-3.916 -9.656,0 -16.072,4.952 -19.244,14.852 z" />
    <path
       style="fill:#0a94d6"
       inkscape:connector-curvature="0"
       id="path16"
       d="m 528.914,488.961 c -2.964,4.212 -6.844,7.424 -11.64,9.632 -4.792,2.208 -9.984,3.312 -15.572,3.312 -8.688,0 -15.948,-2.776 -21.78,-8.328 -5.828,-5.552 -8.74,-12.344 -8.74,-20.372 0,-8.028 2.932,-14.9 8.792,-20.62 5.864,-5.72 13.452,-8.58 22.764,-8.58 5.52,0 10.604,1.172 15.26,3.512 4.656,2.344 8.296,5.62 10.916,9.836 l -6.724,4.112 c -5.036,-6.352 -11.624,-9.532 -19.764,-9.532 -6.412,0 -11.792,1.992 -16.14,5.972 -4.344,3.98 -6.516,8.912 -6.516,14.8 0,5.888 2.136,10.936 6.412,15.152 4.28,4.212 9.692,6.32 16.244,6.32 7.864,0 14.488,-3.212 19.868,-9.632 z" />
    <path
       style="fill:#0a94d6"
       inkscape:connector-curvature="0"
       id="path18"
       d="m 543.918,424.841 c 1.864,0 3.432,0.62 4.708,1.856 1.276,1.24 1.912,2.744 1.912,4.516 0,1.772 -0.636,3.276 -1.912,4.516 -1.276,1.236 -2.828,1.856 -4.656,1.856 -1.828,0 -3.38,-0.636 -4.656,-1.908 -1.276,-1.268 -1.916,-2.76 -1.916,-4.464 0,-1.704 0.64,-3.196 1.916,-4.464 1.276,-1.272 2.812,-1.908 4.604,-1.908 z m 4.344,75.256 h -8.588 v -54.684 h 8.588 z" />
    <path
       style="fill:#0a94d6"
       inkscape:connector-curvature="0"
       id="path20"
       d="m 590.786,451.833 -5.48,5.52 c -4.072,-3.68 -7.796,-5.52 -11.176,-5.52 -2.14,0 -3.932,0.652 -5.38,1.956 -1.448,1.304 -2.172,2.912 -2.172,4.816 0,1.908 0.808,3.58 2.432,5.02 1.62,1.436 4.5,3.208 8.636,5.316 4.14,2.108 7.332,4.432 9.572,6.976 2.244,2.54 3.364,5.652 3.364,9.332 0,4.68 -1.672,8.628 -5.02,11.84 -3.344,3.208 -7.464,4.816 -12.364,4.816 -6.828,0 -12.52,-2.812 -17.072,-8.428 l 5.38,-5.82 c 3.724,4.212 7.52,6.32 11.384,6.32 2.62,0 4.86,-0.836 6.724,-2.508 1.86,-1.672 2.792,-3.628 2.792,-5.872 0,-2.24 -0.844,-4.112 -2.532,-5.616 -1.692,-1.508 -4.588,-3.264 -8.692,-5.268 -4.104,-2.008 -7.208,-4.232 -9.312,-6.676 -2.104,-2.44 -3.156,-5.652 -3.156,-9.632 0,-3.98 1.5,-7.376 4.5,-10.184 3,-2.808 6.968,-4.216 11.9,-4.216 4.932,0 10.156,2.612 15.672,7.828 z" />
    <path
       style="fill:#0a94d6"
       inkscape:connector-curvature="0"
       id="path22"
       d="m 604.754,424.841 c 1.864,0 3.432,0.62 4.708,1.856 1.276,1.24 1.916,2.744 1.916,4.516 0,1.772 -0.64,3.276 -1.916,4.516 -1.276,1.236 -2.828,1.856 -4.656,1.856 -1.828,0 -3.38,-0.636 -4.656,-1.908 -1.276,-1.268 -1.912,-2.76 -1.912,-4.464 0,-1.704 0.636,-3.196 1.912,-4.464 1.276,-1.272 2.812,-1.908 4.604,-1.908 z m 4.348,75.256 h -8.588 v -54.684 h 8.588 z" />
    <path
       style="fill:#0a94d6"
       inkscape:connector-curvature="0"
       id="path24"
       d="m 649.038,444.005 c 8.14,0 15.056,2.844 20.748,8.532 5.688,5.684 8.536,12.508 8.536,20.468 0,7.96 -2.812,14.768 -8.436,20.42 -5.62,5.652 -12.568,8.48 -20.848,8.48 -8.276,0 -15.244,-2.828 -20.9,-8.48 -5.656,-5.652 -8.484,-12.46 -8.484,-20.42 0,-7.96 2.848,-14.784 8.536,-20.468 5.692,-5.688 12.64,-8.532 20.848,-8.532 z m 0,49.972 c 5.728,0 10.608,-2.024 14.64,-6.072 4.036,-4.044 6.056,-8.928 6.056,-14.648 0,-5.72 -2.052,-10.672 -6.156,-14.852 -4.104,-4.18 -8.968,-6.272 -14.592,-6.272 -5.62,0 -10.464,2.092 -14.536,6.272 -4.068,4.18 -6.104,9.148 -6.104,14.9 0,5.756 1.964,10.636 5.896,14.652 3.932,4.012 8.864,6.02 14.796,6.02 z" />
    <path
       style="fill:#0a94d6"
       inkscape:connector-curvature="0"
       id="path26"
       d="m 739.47,500.097 h -8.484 v -26.088 c 0,-6.02 -0.296,-10.116 -0.88,-12.292 -0.588,-2.176 -1.448,-4.012 -2.588,-5.52 -1.136,-1.504 -2.588,-2.624 -4.344,-3.36 -1.76,-0.736 -3.9,-1.104 -6.416,-1.104 -2.516,0 -4.984,0.6 -7.396,1.808 -2.416,1.204 -4.484,2.876 -6.208,5.016 -1.728,2.14 -2.916,4.416 -3.572,6.824 -0.656,2.408 -0.984,7.224 -0.984,14.448 v 20.268 h -8.588 v -54.684 h 8.588 v 8.228 c 5.588,-6.424 12.212,-9.636 19.868,-9.636 4.068,0 7.76,1.02 11.072,3.064 3.308,2.04 5.792,4.848 7.448,8.428 1.656,3.576 2.484,9.08 2.484,16.504 z" />
  </g>
  <path
     style="fill:#0a94d6"
     inkscape:connector-curvature="0"
     id="path30"
     d="M 657.7,0 506.02,142.428 c 17.224,13.044 38.54,21 62.024,21 58.596,0 107.936,-48.72 107.936,-105.652 C 675.98,36.88 669.1,16.98 657.7,0 Z" />
  <path
     style="fill:#edf9ff;fill-opacity:0.87562191"
     inkscape:connector-curvature="0"
     id="path32"
     d="m 621.856,118.191 c -14.874,1.31 -26.832,9.972 -35.095,22.53 -4.229,-0.437 -2.387,-0.34 -5.519,-0.421 -17.78,0.089 -35.259,13.993 -37.146,32.982 -4.852,-2.245 -10.151,-3.03 -15.421,-3.167 -22.439,0 -40.629,18.714 -40.629,41.799 0,23.085 21.063,42.211 40.629,41.799 19.567,-0.412 125.021,-0.545 145.959,0 22.439,0 40.629,-18.714 40.629,-41.799 0,-23.085 -18.19,-41.799 -40.63,-41.799 -2.934,0.076 -1.397,-0.018 -4.61,0.317 0.116,-1.249 0.034,-0.27 0.096,-2.948 -0.284,-26.723 -19.109,-48.676 -45.315,-49.399 z" />
</svg>
