<?xml version="1.0" encoding="UTF-8" standalone="no"?>
<svg
   xmlns:dc="http://purl.org/dc/elements/1.1/"
   xmlns:cc="http://creativecommons.org/ns#"
   xmlns:rdf="http://www.w3.org/1999/02/22-rdf-syntax-ns#"
   xmlns:svg="http://www.w3.org/2000/svg"
   xmlns="http://www.w3.org/2000/svg"
   xmlns:sodipodi="http://sodipodi.sourceforge.net/DTD/sodipodi-0.dtd"
   xmlns:inkscape="http://www.inkscape.org/namespaces/inkscape"
   version="1.1"
   x="0"
   y="0"
   width="227.217"
   height="253.71953"
   viewBox="0 0 227.217 253.71953"
   id="svg35"
   sodipodi:docname="logo_mini_w.svg"
   inkscape:version="0.92.4 (5da689c313, 2019-01-14)">
  <metadata
     id="metadata41">
    <rdf:RDF>
      <cc:Work
         rdf:about="">
        <dc:format>image/svg+xml</dc:format>
        <dc:type
           rdf:resource="http://purl.org/dc/dcmitype/StillImage" />
        <dc:title></dc:title>
      </cc:Work>
    </rdf:RDF>
  </metadata>
  <defs
     id="defs39" />
  <sodipodi:namedview
     pagecolor="#ffffff"
     bordercolor="#666666"
     borderopacity="1"
     objecttolerance="10"
     gridtolerance="10"
     guidetolerance="10"
     inkscape:pageopacity="0"
     inkscape:pageshadow="2"
     inkscape:window-width="1920"
     inkscape:window-height="991"
     id="namedview37"
     showgrid="false"
     inkscape:zoom="0.921875"
     inkscape:cx="-294.27125"
     inkscape:cy="-10.09446"
     inkscape:window-x="-9"
     inkscape:window-y="-9"
     inkscape:window-maximized="1"
     inkscape:current-layer="svg35" />
  <path
     style="fill:#0a94d6"
     inkscape:connector-curvature="0"
     id="path30"
     d="M 169.654,0 17.974,142.428 c 17.224,13.044 38.54,21 62.024,21 58.596,0 107.936,-48.72 107.936,-105.652 0,-20.896 -6.88,-40.796 -18.28,-57.776 z" />
  <path
     style="fill:#edf9ff;fill-opacity:0.8756219"
     inkscape:connector-curvature="0"
     id="path32"
     d="m 133.81,118.191 c -14.874,1.31 -26.832,9.972 -35.095,22.53 -4.229,-0.437 -2.387,-0.34 -5.519,-0.421 -17.78,0.089 -35.259,13.993 -37.146,32.982 -4.852,-2.245 -10.151,-3.03 -15.421,-3.167 C 18.19,170.115 0,188.829 0,211.914 c 0,23.085 21.063,42.211 40.629,41.799 19.567,-0.412 125.021,-0.545 145.959,0 22.439,0 40.629,-18.714 40.629,-41.799 0,-23.085 -18.19,-41.799 -40.63,-41.799 -2.934,0.076 -1.397,-0.018 -4.61,0.317 0.116,-1.249 0.034,-0.27 0.096,-2.948 -0.284,-26.723 -19.109,-48.676 -45.315,-49.399 z" />
</svg>
