<?xml version="1.0" encoding="UTF-8" standalone="no"?>
<!-- Generator: Adobe Illustrator 19.1.0, SVG Export Plug-In . SVG Version: 6.00 Build 0)  -->

<svg
   xmlns:dc="http://purl.org/dc/elements/1.1/"
   xmlns:cc="http://creativecommons.org/ns#"
   xmlns:rdf="http://www.w3.org/1999/02/22-rdf-syntax-ns#"
   xmlns:svg="http://www.w3.org/2000/svg"
   xmlns="http://www.w3.org/2000/svg"
   xmlns:sodipodi="http://sodipodi.sourceforge.net/DTD/sodipodi-0.dtd"
   xmlns:inkscape="http://www.inkscape.org/namespaces/inkscape"
   version="1.1"
   id="Capa_1"
   x="0px"
   y="0px"
   viewBox="0 0 483.6 483.6"
   style="enable-background:new 0 0 483.6 483.6;"
   xml:space="preserve"
   sodipodi:docname="meta_w.svg"
   inkscape:version="0.92.4 (5da689c313, 2019-01-14)"><metadata
   id="metadata41"><rdf:RDF><cc:Work
       rdf:about=""><dc:format>image/svg+xml</dc:format><dc:type
         rdf:resource="http://purl.org/dc/dcmitype/StillImage" /><dc:title></dc:title></cc:Work></rdf:RDF></metadata><defs
   id="defs39" /><sodipodi:namedview
   pagecolor="#ffffff"
   bordercolor="#666666"
   borderopacity="1"
   objecttolerance="10"
   gridtolerance="10"
   guidetolerance="10"
   inkscape:pageopacity="0"
   inkscape:pageshadow="2"
   inkscape:window-width="1920"
   inkscape:window-height="991"
   id="namedview37"
   showgrid="false"
   inkscape:zoom="0.48800661"
   inkscape:cx="241.8"
   inkscape:cy="241.8"
   inkscape:window-x="-9"
   inkscape:window-y="-9"
   inkscape:window-maximized="1"
   inkscape:current-layer="Capa_1" />
<g
   id="g4"
   style="fill:#fafafa;fill-opacity:1">
	<path
   d="M466.2,353.25H451v-30.2c0-9.9-5.6-17.1-13.4-17.1h-53.1v-36.4h15.2c9.5,0,17.2-7.7,17.2-17.2v-30   c0-9.5-7.7-17.2-17.2-17.2h-15.2v-30.3c0-9.4-7.7-17.1-17.1-17.1H251.2v-27.3h15.4c9.5,0,17.2-7.7,17.2-17.2v-30   c0-9.5-7.7-17.2-17.2-17.2h-49.9c-9.5,0-17.2,7.7-17.2,17.2v30c0,9.5,7.7,17.2,17.2,17.2h15.1v27.3H116.1   c-9.4,0-17.1,7.7-17.1,17.1v30.2H83.7c-9.5,0-17.2,7.7-17.2,17.2v30c0,9.5,7.7,17.2,17.2,17.2h15.2v36.4h-53   c-7.8,0-13.4,7.2-13.4,17.1v30.2H17.2c-9.5,0-17.2,7.7-17.2,17.2v30c0,9.5,7.7,17.2,17.2,17.2h49.9c9.5,0,17.2-7.7,17.2-17.2v-30   c0-9.5-7.7-17.2-17.2-17.2H51.9v-27.9h113.6v27.9h-15.2c-9.5,0-17.2,7.7-17.2,17.2v30c0,9.5,7.7,17.2,17.2,17.2h49.9   c9.5,0,17.2-7.7,17.2-17.2v-30c0-9.5-7.7-17.2-17.2-17.2H185v-30.2c0-9.9-5.6-17.1-13.4-17.1h-53.1v-36.4h15.2   c9.5,0,17.2-7.7,17.2-17.2v-30c0-9.5-7.7-17.2-17.2-17.2h-15.2v-27.9h113.4v27.9h-15.1c-9.5,0-17.2,7.7-17.2,17.2v30   c0,9.5,7.7,17.2,17.2,17.2h49.9c9.5,0,17.2-7.7,17.2-17.2v-30c0-9.5-7.7-17.2-17.2-17.2h-15.4v-27.9h113.8v27.9h-15.2   c-9.5,0-17.2,7.7-17.2,17.2v30c0,9.5,7.7,17.2,17.2,17.2h15.2v36.4H312c-7.8,0-13.4,7.2-13.4,17.1v30.2h-15.2   c-9.5,0-17.2,7.7-17.2,17.2v30c0,9.5,7.7,17.2,17.2,17.2h49.9c9.5,0,17.2-7.7,17.2-17.2v-30c0-9.5-7.7-17.2-17.2-17.2h-15.2v-27.9   h113.6v27.9h-15.2c-9.5,0-17.2,7.7-17.2,17.2v30c0,9.5,7.7,17.2,17.2,17.2h49.9c9.5,0,17.2-7.7,17.2-17.2v-30   C483.3,360.95,475.7,353.25,466.2,353.25z"
   id="path2"
   style="fill:#fafafa;fill-opacity:1" />
</g>
<g
   id="g6"
   style="fill:#fafafa;fill-opacity:1">
</g>
<g
   id="g8"
   style="fill:#fafafa;fill-opacity:1">
</g>
<g
   id="g10"
   style="fill:#fafafa;fill-opacity:1">
</g>
<g
   id="g12"
   style="fill:#fafafa;fill-opacity:1">
</g>
<g
   id="g14"
   style="fill:#fafafa;fill-opacity:1">
</g>
<g
   id="g16"
   style="fill:#fafafa;fill-opacity:1">
</g>
<g
   id="g18"
   style="fill:#fafafa;fill-opacity:1">
</g>
<g
   id="g20"
   style="fill:#fafafa;fill-opacity:1">
</g>
<g
   id="g22"
   style="fill:#fafafa;fill-opacity:1">
</g>
<g
   id="g24"
   style="fill:#fafafa;fill-opacity:1">
</g>
<g
   id="g26"
   style="fill:#fafafa;fill-opacity:1">
</g>
<g
   id="g28"
   style="fill:#fafafa;fill-opacity:1">
</g>
<g
   id="g30"
   style="fill:#fafafa;fill-opacity:1">
</g>
<g
   id="g32"
   style="fill:#fafafa;fill-opacity:1">
</g>
<g
   id="g34"
   style="fill:#fafafa;fill-opacity:1">
</g>
</svg>