<?xml version="1.0" encoding="UTF-8" standalone="no"?>
<!-- Svg Vector Icons : http://www.onlinewebfonts.com/icon -->

<svg
   xmlns:dc="http://purl.org/dc/elements/1.1/"
   xmlns:cc="http://creativecommons.org/ns#"
   xmlns:rdf="http://www.w3.org/1999/02/22-rdf-syntax-ns#"
   xmlns:svg="http://www.w3.org/2000/svg"
   xmlns="http://www.w3.org/2000/svg"
   xmlns:sodipodi="http://sodipodi.sourceforge.net/DTD/sodipodi-0.dtd"
   xmlns:inkscape="http://www.inkscape.org/namespaces/inkscape"
   version="1.1"
   x="0px"
   y="0px"
   viewBox="0 0 1000 1000"
   enable-background="new 0 0 1000 1000"
   xml:space="preserve"
   id="svg10"
   sodipodi:docname="net.svg"
   inkscape:version="0.92.4 (5da689c313, 2019-01-14)"><defs
   id="defs14" /><sodipodi:namedview
   pagecolor="#ffffff"
   bordercolor="#666666"
   borderopacity="1"
   objecttolerance="10"
   gridtolerance="10"
   guidetolerance="10"
   inkscape:pageopacity="0"
   inkscape:pageshadow="2"
   inkscape:window-width="1920"
   inkscape:window-height="991"
   id="namedview12"
   showgrid="false"
   inkscape:zoom="0.236"
   inkscape:cx="500"
   inkscape:cy="500"
   inkscape:window-x="-9"
   inkscape:window-y="-9"
   inkscape:window-maximized="1"
   inkscape:current-layer="svg10" />
<metadata
   id="metadata2"> Svg Vector Icons : http://www.onlinewebfonts.com/icon <rdf:RDF><cc:Work
     rdf:about=""><dc:format>image/svg+xml</dc:format><dc:type
       rdf:resource="http://purl.org/dc/dcmitype/StillImage" /></cc:Work></rdf:RDF></metadata>
<path
   inkscape:connector-curvature="0"
   d="m 860.53,12.46 c -52.08,12.64 -90.57,66.44 -83.29,116.61 1.15,8.23 4.6,20.11 7.28,26.42 l 5.17,11.68 -88.09,88.08 -88.27,88.27 -8.23,-5.74 c -24.13,-16.66 -49.02,-24.32 -78.32,-24.32 -29.11,0 -54.38,7.66 -77.74,23.93 l -8.81,6.13 -68.74,-68.74 -68.74,-68.74 4.98,-12.25 c 6.7,-16.66 5.94,-36 -2.11,-52.46 -7.47,-14.94 -25.85,-32.17 -40.21,-37.53 -14.36,-5.36 -33.51,-5.36 -47.87,0 -14.17,5.36 -31.98,21.83 -39.83,36.96 -5.55,10.53 -6.13,13.4 -6.13,28.91 0,14.74 0.77,18.76 5.17,28.34 6.7,13.98 22.21,29.68 36.96,36.96 9.96,4.79 13.6,5.55 27.76,5.55 13.02,0 18.38,-0.96 26.42,-4.6 l 10.34,-4.6 67.78,67.78 c 37.34,37.34 67.78,68.55 67.78,69.31 0,0.96 -2.68,5.55 -5.94,10.15 -27,39.44 -30.64,94.4 -9.19,137.29 3.25,6.32 8.23,14.93 10.91,19.15 l 4.98,7.28 -113.14,113.16 -113.16,113.17 -13.21,-8.81 c -7.08,-4.98 -18.19,-10.92 -24.51,-13.02 -14.17,-5.17 -40.02,-6.89 -55.15,-3.64 -24.51,4.98 -52.66,24.7 -67.59,47.3 -28.15,42.5 -22.6,93.44 14.55,130.96 23.93,24.13 48.25,33.7 81.38,31.98 67.4,-3.83 116.42,-75.44 94.02,-137.48 -2.87,-7.85 -5.55,-15.7 -6.13,-17.23 -0.57,-1.92 37.91,-41.74 113.55,-117.19 l 114.5,-114.31 8.62,5.74 c 12.83,9 29.87,16.47 45.96,20.68 l 14.36,3.64 0.57,89.8 0.38,90 -12.83,4.21 c -17.81,5.93 -32.17,15.13 -45.76,29.3 -25.08,26.04 -35.04,56.49 -29.49,89.42 8.23,49.02 55.91,90 104.74,90.19 53.23,0.19 102.25,-45.38 107.04,-99.38 4.02,-45.57 -30.06,-94.59 -76.02,-109.33 l -13.21,-4.4 0.38,-89.8 0.57,-89.99 14.17,-3.64 c 16.85,-4.4 30.64,-10.34 44.42,-19.72 l 10.34,-6.89 68.36,68.36 68.55,68.55 -4.79,11.49 c -15.51,37.72 7.85,81.95 49.59,94.01 30.06,8.43 65.48,-9.38 81,-40.78 4.59,-9.57 5.36,-13.4 5.36,-27.38 0,-21.45 -6.13,-35.42 -22.21,-50.74 -22.6,-21.64 -51.51,-27 -76.59,-14.36 l -6.7,3.64 -68.93,-68.93 c -60.51,-60.54 -68.36,-69.16 -66.44,-72.22 7.08,-9.96 17.04,-29.11 21.45,-41.17 4.4,-12.45 4.98,-16.47 4.98,-40.59 0,-24.32 -0.57,-28.34 -5.55,-43.47 -2.87,-9.19 -9.19,-22.98 -13.78,-30.44 -4.6,-7.47 -8.43,-14.17 -8.43,-14.74 0,-0.77 38.68,-40.02 85.97,-87.31 l 85.78,-85.78 9.57,6.89 c 31.4,22.4 66.63,27.38 100.14,13.79 31.98,-13.02 59.93,-46.34 66.83,-79.27 C 1002.8,64.92 931.19,-4.58 860.53,12.46 Z m 53.42,38.87 c 12.64,5.74 27.38,20.11 33.51,32.93 4.79,9.77 5.36,12.64 5.36,31.79 0,19.91 -0.38,21.83 -6.32,33.89 -7.28,14.74 -17.62,24.89 -32.74,31.98 -9.38,4.21 -13.21,4.98 -29.87,4.98 -24.89,-0.19 -37.15,-4.6 -51.7,-19.15 -14.55,-14.55 -18.96,-26.81 -18.96,-51.7 0,-15.7 0.77,-20.87 4.21,-28.53 8.43,-18.57 18.96,-28.72 38.1,-36.76 9.76,-4.21 13.4,-4.6 30.25,-4.02 14.37,0.37 21.46,1.52 28.16,4.59 z m -658.49,85.59 c 14.55,5.36 20.87,15.13 21.06,32.74 0.19,22.59 -12.45,35.42 -35.04,35.42 -19.91,0 -31.79,-9.96 -35.23,-29.3 -1.72,-9.57 3.06,-26.04 9.19,-31.79 9.57,-8.99 26.23,-11.86 40.02,-7.07 z M 553.4,351.57 c 17.62,4.21 37.72,15.51 49.98,27.96 40.21,40.78 40.21,110.29 0,151.27 -20.68,21.06 -45.38,31.02 -77.55,31.02 -51.32,0 -93.06,-33.32 -103.4,-82.53 -12.64,-59.17 21.83,-115.08 78.51,-127.72 15.5,-3.45 37.52,-3.45 52.46,0 z m 275.92,357.49 c 12.83,6.7 16.08,12.64 16.85,29.87 0.57,12.83 0.19,15.51 -3.83,21.25 -7.28,10.91 -13.59,14.36 -27.38,15.13 -21.25,1.34 -33.7,-7.47 -37.72,-27 -3.64,-17.81 3.45,-32.93 18.38,-39.83 10.72,-4.79 23.36,-4.59 33.7,0.58 z m -684.15,72.76 c 14.74,5.36 29.1,19.15 36.19,34.66 4.98,10.53 5.55,13.98 5.55,31.02 0,17.04 -0.57,20.49 -5.55,31.02 -17.23,37.34 -62.81,51.13 -101.29,30.64 -12.45,-6.51 -22.02,-17.04 -28.53,-31.21 -3.83,-7.85 -4.4,-12.64 -4.4,-30.45 0,-17.81 0.57,-22.59 4.4,-30.45 15.88,-34.66 55.52,-49.59 93.63,-35.23 z m 414.93,37.72 c 14.36,7.08 24.51,17.61 31.59,32.55 4.4,9.38 4.98,13.02 4.98,30.83 0,17.81 -0.57,21.45 -5.17,31.02 -7.08,15.13 -18.38,26.81 -32.74,33.32 -10.72,4.98 -13.79,5.55 -32.94,5.55 -19.34,0 -22.02,-0.38 -31.59,-5.36 -26.81,-13.79 -39.64,-37.15 -37.91,-69.13 1.34,-24.89 12.64,-45 31.78,-56.1 13.4,-7.85 24.13,-10.15 43.08,-9.38 13.98,0.57 18.77,1.72 28.92,6.7 z"
   id="path4"
   style="stroke:#000000;stroke-width:32.8;stroke-miterlimit:4;stroke-dasharray:none;stroke-opacity:1" />
</svg>