<?xml version="1.0" encoding="UTF-8" standalone="no"?>
<!-- Generator: Adobe Illustrator 16.0.0, SVG Export Plug-In . SVG Version: 6.00 Build 0)  -->

<svg
   xmlns:dc="http://purl.org/dc/elements/1.1/"
   xmlns:cc="http://creativecommons.org/ns#"
   xmlns:rdf="http://www.w3.org/1999/02/22-rdf-syntax-ns#"
   xmlns:svg="http://www.w3.org/2000/svg"
   xmlns="http://www.w3.org/2000/svg"
   xmlns:sodipodi="http://sodipodi.sourceforge.net/DTD/sodipodi-0.dtd"
   xmlns:inkscape="http://www.inkscape.org/namespaces/inkscape"
   version="1.1"
   id="Capa_1"
   x="0px"
   y="0px"
   width="95.337px"
   height="95.336px"
   viewBox="0 0 95.337 95.336"
   style="enable-background:new 0 0 95.337 95.336;"
   xml:space="preserve"
   sodipodi:docname="chart_w.svg"
   inkscape:version="0.92.4 (5da689c313, 2019-01-14)"><metadata
   id="metadata47"><rdf:RDF><cc:Work
       rdf:about=""><dc:format>image/svg+xml</dc:format><dc:type
         rdf:resource="http://purl.org/dc/dcmitype/StillImage" /><dc:title></dc:title></cc:Work></rdf:RDF></metadata><defs
   id="defs45" /><sodipodi:namedview
   pagecolor="#ffffff"
   bordercolor="#666666"
   borderopacity="1"
   objecttolerance="10"
   gridtolerance="10"
   guidetolerance="10"
   inkscape:pageopacity="0"
   inkscape:pageshadow="2"
   inkscape:window-width="1920"
   inkscape:window-height="991"
   id="namedview43"
   showgrid="false"
   inkscape:zoom="2.4754553"
   inkscape:cx="47.668499"
   inkscape:cy="47.667999"
   inkscape:window-x="-9"
   inkscape:window-y="-9"
   inkscape:window-maximized="1"
   inkscape:current-layer="Capa_1" />
<g
   id="g10"
   style="fill:#f5f5f5;fill-opacity:1">
	<g
   id="g8"
   style="fill:#f5f5f5;fill-opacity:1">
		<path
   d="M92.938,5.78H2.4C1.076,5.78,0,6.857,0,8.18v63.438c0,1.322,1.077,2.4,2.4,2.4h90.538c1.323,0,2.399-1.078,2.399-2.4    V8.181C95.338,6.857,94.262,5.78,92.938,5.78z M88.137,66.817H7.201V12.982h80.936V66.817z"
   id="path2"
   style="fill:#f5f5f5;fill-opacity:1" />
		<path
   d="M65.072,81.756h-4.801v-4.402c0-0.663-0.539-1.2-1.201-1.2H36.267c-0.663,0-1.2,0.537-1.2,1.2v4.402h-4.801    c-0.663,0-1.2,0.537-1.2,1.199v5.401c0,0.663,0.538,1.2,1.2,1.2h34.806c0.662,0,1.199-0.537,1.199-1.2v-5.401    C66.271,82.293,65.734,81.756,65.072,81.756z"
   id="path4"
   style="fill:#f5f5f5;fill-opacity:1" />
		<path
   d="M15.303,19.077c-1.104,0-2,0.896-2,2v16.672l18.671-18.672H15.303z"
   id="path6"
   style="fill:#f5f5f5;fill-opacity:1" />
	</g>
</g>
<g
   id="g12"
   style="fill:#f5f5f5;fill-opacity:1">
</g>
<g
   id="g14"
   style="fill:#f5f5f5;fill-opacity:1">
</g>
<g
   id="g16"
   style="fill:#f5f5f5;fill-opacity:1">
</g>
<g
   id="g18"
   style="fill:#f5f5f5;fill-opacity:1">
</g>
<g
   id="g20"
   style="fill:#f5f5f5;fill-opacity:1">
</g>
<g
   id="g22"
   style="fill:#f5f5f5;fill-opacity:1">
</g>
<g
   id="g24"
   style="fill:#f5f5f5;fill-opacity:1">
</g>
<g
   id="g26"
   style="fill:#f5f5f5;fill-opacity:1">
</g>
<g
   id="g28"
   style="fill:#f5f5f5;fill-opacity:1">
</g>
<g
   id="g30"
   style="fill:#f5f5f5;fill-opacity:1">
</g>
<g
   id="g32"
   style="fill:#f5f5f5;fill-opacity:1">
</g>
<g
   id="g34"
   style="fill:#f5f5f5;fill-opacity:1">
</g>
<g
   id="g36"
   style="fill:#f5f5f5;fill-opacity:1">
</g>
<g
   id="g38"
   style="fill:#f5f5f5;fill-opacity:1">
</g>
<g
   id="g40"
   style="fill:#f5f5f5;fill-opacity:1">
</g>
</svg>