<?xml version="1.0" encoding="UTF-8" standalone="no"?>
<svg
   xmlns:dc="http://purl.org/dc/elements/1.1/"
   xmlns:cc="http://creativecommons.org/ns#"
   xmlns:rdf="http://www.w3.org/1999/02/22-rdf-syntax-ns#"
   xmlns:svg="http://www.w3.org/2000/svg"
   xmlns="http://www.w3.org/2000/svg"
   xmlns:sodipodi="http://sodipodi.sourceforge.net/DTD/sodipodi-0.dtd"
   xmlns:inkscape="http://www.inkscape.org/namespaces/inkscape"
   version="1.1"
   id="Layer_1"
   x="0px"
   y="0px"
   viewBox="0 0 124.39063 120.06056"
   xml:space="preserve"
   sodipodi:docname="schedule_w.svg"
   inkscape:version="0.92.4 (5da689c313, 2019-01-14)"
   width="124.39062"
   height="120.06055"><metadata
     id="metadata11"><rdf:RDF><cc:Work
         rdf:about=""><dc:format>image/svg+xml</dc:format><dc:type
           rdf:resource="http://purl.org/dc/dcmitype/StillImage" /><dc:title></dc:title></cc:Work></rdf:RDF></metadata><defs
     id="defs9" /><sodipodi:namedview
     pagecolor="#ffffff"
     bordercolor="#666666"
     borderopacity="1"
     objecttolerance="10"
     gridtolerance="10"
     guidetolerance="10"
     inkscape:pageopacity="0"
     inkscape:pageshadow="2"
     inkscape:window-width="1920"
     inkscape:window-height="991"
     id="namedview7"
     showgrid="false"
     inkscape:zoom="3.9313677"
     inkscape:cx="42.590846"
     inkscape:cy="44.74298"
     inkscape:window-x="-9"
     inkscape:window-y="-9"
     inkscape:window-maximized="1"
     inkscape:current-layer="Layer_1" /><path
     inkscape:connector-curvature="0"
     id="path854"
     d="m 31.730469,0 c -2.74,0 -4.941407,1.8207813 -4.941407,4.0507812 V 21.769531 c 0,2.24 2.201407,4.050783 4.941407,4.050781 2.73,0 4.939453,-1.820781 4.939453,-4.050781 V 4.0507812 C 36.669922,1.8107813 34.470469,0 31.730469,0 Z"
     style="fill:#f5f5f5;fill-opacity:1" /><path
     inkscape:connector-curvature="0"
     id="path852"
     d="m 76.099609,0 c -2.74,0 -4.939453,1.8207813 -4.939453,4.0507812 V 21.769531 c 0,2.24 2.199453,4.050783 4.939453,4.050781 2.74,0 4.939455,-1.820781 4.939453,-4.050781 V 4.0507812 C 81.039062,1.8107813 78.839609,0 76.099609,0 Z"
     style="fill:#f5f5f5;fill-opacity:1" /><path
     inkscape:connector-curvature="0"
     id="path850"
     d="m 44.570312,10.369141 c -1.509999,0 -2.740234,1.230234 -2.740234,2.740234 0,1.51 1.230235,2.740234 2.740234,2.740234 h 18.359376 c 1.509999,0 2.740234,-1.230234 2.740234,-2.740234 0,-1.51 -1.230235,-2.740234 -2.740234,-2.740234 z"
     style="fill:#f5f5f5;fill-opacity:1" /><path
     inkscape:connector-curvature="0"
     id="path848"
     d="m 89.509766,10.369141 c -1.51,0 -2.740235,1.230234 -2.740235,2.740234 0,1.51 1.230235,2.740234 2.740235,2.740234 h 9.019531 c 0.67,0 1.309767,0.280469 1.759763,0.730469 0.45,0.45 0.73047,1.059766 0.73047,1.759766 v 20.40039 H 6.9902344 V 18.349609 c 0,-0.67 0.2804687,-1.309765 0.7304687,-1.759765 0.45,-0.45 1.0597655,-0.730469 1.7597657,-0.730469 h 9.6289062 c 1.51,0 2.740234,-1.230234 2.740234,-2.740234 0,-1.51 -1.230234,-2.738282 -2.740234,-2.738282 H 9.4804688 c -2.2100001,0 -4.1906252,0.889844 -5.640625,2.339844 C 2.3898437,14.170703 1.5,16.159375 1.5,18.359375 v 78.710937 c 0,2.21 0.8898437,4.188908 2.3398438,5.628908 1.45,1.45 3.4406248,2.33984 5.640625,2.33984 H 56.060547 c -0.77,-1.78 -1.409922,-3.62929 -1.919922,-5.529294 H 9.4296875 c -0.67,0 -1.3097656,-0.280469 -1.7597656,-0.730469 -0.45,-0.45 -0.7304688,-1.059766 -0.7304688,-1.759766 V 44.189453 H 100.96094 V 49.25 c 1.9,0.37 3.74883,0.870234 5.54883,1.490234 V 18.349609 c 0,-2.21 -0.88985,-4.188673 -2.33985,-5.638671 -1.45,-1.450002 -3.43062,-2.341797 -5.640623,-2.341797 z"
     style="fill:#f5f5f5;fill-opacity:1;stroke:#f5f5f5;stroke-width:3;stroke-miterlimit:4;stroke-dasharray:none;stroke-opacity:1" /><path
     inkscape:connector-curvature="0"
     id="path846"
     d="m 14.949219,53.890625 c -0.31,0 -0.529297,1.506674 -0.529297,3.373762 0,1.867089 0.249297,3.388252 0.529297,3.388252 h 13.480469 c 0.31,0 0.53125,-1.521163 0.53125,-3.388252 0,-1.854723 -0.25125,-3.373762 -0.53125,-3.373762 z"
     style="fill:#f5f5f5;fill-opacity:1;stroke-width:1.11197233" /><path
     inkscape:connector-curvature="0"
     id="path844"
     d="m 36.439453,53.890625 c -0.31,0 -0.529297,1.506674 -0.529297,3.373762 0,1.867089 0.249297,3.388252 0.529297,3.388252 h 13.480469 c 0.31,0 0.529297,-1.521163 0.529297,-3.388252 0,-1.854723 -0.249297,-3.373762 -0.529297,-3.373762 z"
     style="fill:#f5f5f5;fill-opacity:1;stroke-width:1.11197233" /><path
     inkscape:connector-curvature="0"
     id="path842"
     d="m 57.929688,53.890625 c -0.310001,0 -0.529297,1.506674 -0.529297,3.373762 0,1.867089 0.249294,3.388252 0.529297,3.388252 h 10.121093 c 1.24,-1.224118 2.538672,-2.361682 3.888672,-3.400327 0,-1.854724 -0.249297,-3.361687 -0.529297,-3.361687 z"
     style="fill:#f5f5f5;fill-opacity:1;stroke-width:1.11197233" /><path
     style="fill:#f5f5f5;fill-opacity:1"
     d="m 92.869141,57.029297 c -4.27,0 -8.328829,0.850859 -12.048829,2.380859 -3.849997,1.6 -7.330468,3.939844 -10.230468,6.839844 -2.9,2.9 -5.239844,6.370234 -6.839844,10.240234 -1.54,3.72 -2.390625,7.788828 -2.390625,12.048828 0,4.260003 0.850625,8.330794 2.390625,12.050778 1.6,3.86 3.939844,7.34024 6.839844,10.24024 2.9,2.9 6.370234,5.23984 10.240234,6.83984 3.72,1.54 7.790781,2.39063 12.050781,2.39063 4.26,0 8.328821,-0.85063 12.048831,-2.39063 3.85,-1.6 7.33047,-3.93984 10.23047,-6.83984 2.9,-2.9 5.23984,-6.37024 6.83984,-10.24024 1.54,-3.719984 2.39065,-7.790774 2.39062,-12.050778 3e-5,-4.259998 -0.85062,-8.328828 -2.39062,-12.048828 -1.6,-3.85 -3.93984,-7.330468 -6.83984,-10.230468 -2.9,-2.9 -6.37024,-5.239844 -10.24024,-6.839844 -3.71999,-1.54 -7.790779,-2.390625 -12.050779,-2.390625 z m -0.38086,7.947265 c 3.184445,0 6.216115,0.621901 8.976559,1.767579 2.85969,1.181763 5.44041,2.922828 7.60547,5.08789 2.16506,2.165061 3.90492,4.745784 5.09571,7.605469 1.13666,2.760452 1.76755,5.790166 1.76757,8.974609 -3e-5,6.477144 -2.61434,12.333101 -6.86328,16.582031 -2.16506,2.16506 -4.74578,3.90614 -7.60547,5.08789 -2.760444,1.13666 -5.792114,1.76758 -8.976559,1.76758 -3.184443,0 -6.214157,-0.6219 -8.974609,-1.76758 -2.859685,-1.18175 -5.440408,-2.92283 -7.605469,-5.08789 -2.165062,-2.16506 -3.906128,-4.74579 -5.087891,-7.605468 -1.136656,-2.760453 -1.767578,-5.792115 -1.767578,-8.976563 0,-3.184442 0.6219,-6.214157 1.767578,-8.974609 1.181764,-2.859685 2.922829,-5.440408 5.087891,-7.605469 2.165061,-2.165062 4.745784,-3.906127 7.605469,-5.08789 2.760452,-1.136657 5.790166,-1.767578 8.974609,-1.767579 z"
     id="path840"
     inkscape:connector-curvature="0" /><path
     inkscape:connector-curvature="0"
     id="path836"
     d="m 14.980469,69.26621 c -0.31,0 -0.53125,1.521163 -0.53125,3.388252 0,1.867089 0.25125,3.385837 0.53125,3.385837 h 13.480469 c 0.31,10e-7 0.529296,-1.518748 0.529296,-3.385837 0,-1.867089 -0.249296,-3.388252 -0.529296,-3.388252 z"
     style="fill:#f5f5f5;fill-opacity:1;stroke-width:1.11197233" /><path
     inkscape:connector-curvature="0"
     id="path834"
     d="m 36.470703,69.26621 c -0.31,0 -0.53125,1.521163 -0.53125,3.388252 0,1.867089 0.25125,3.385837 0.53125,3.385837 h 13.478516 c 0.31,10e-7 0.53125,-1.518748 0.53125,-3.385837 0,-1.867089 -0.25125,-3.388252 -0.53125,-3.388252 z"
     style="fill:#f5f5f5;fill-opacity:1;stroke-width:1.11197233" /><path
     inkscape:connector-curvature="0"
     id="path832"
     d="m 92.054682,70.00214 c -1.07827,0 -2.043083,0.434875 -2.743271,1.13505 -0.700175,0.700174 -1.13504,1.665322 -1.13504,2.729588 L 88.01972,92.328752 c 0,0.728179 0.210276,1.413915 0.574368,2.002062 0.364091,0.574143 0.869308,1.064594 1.471459,1.386674 l 12.328463,7.782122 c 0.89621,0.51813 1.93323,0.62917 2.88547,0.39111 0.89623,-0.22404 1.72397,-0.78441 2.27011,-1.62461 0.0421,-0.0421 0.0678,-0.0834 0.0958,-0.13948 l 0.0301,-0.0411 c 0.51813,-0.89624 0.62918,-1.93326 0.39111,-2.885492 -0.22406,-0.910227 -0.78409,-1.734906 -1.6383,-2.281035 l -0.12575,-0.0848 -10.509639,-6.7346 0.142654,-16.216467 c 0.0095,-1.078228 -0.434865,-2.045823 -1.13504,-2.745997 -0.700174,-0.700175 -1.667731,-1.13505 -2.746001,-1.13505 z"
     style="fill:#f5f5f5;fill-opacity:1;stroke-width:1.40034974"
     sodipodi:nodetypes="cccccccccccccccsccc" /><path
     inkscape:connector-curvature="0"
     id="path830"
     d="m 15.009766,84.665945 c -0.31,0 -0.529297,1.521163 -0.529297,3.388252 0,1.867089 0.249297,3.388253 0.529297,3.388253 h 13.480468 c 0.31,0 0.529297,-1.521164 0.529297,-3.388253 0,-1.867089 -0.249297,-3.388252 -0.529297,-3.388252 z"
     style="fill:#f5f5f5;fill-opacity:1;stroke-width:1.11197233" /><path
     inkscape:connector-curvature="0"
     id="path2"
     d="m 36.5,84.665945 c -0.31,0 -0.529297,1.521163 -0.529297,3.388252 0,1.867089 0.249297,3.388253 0.529297,3.388253 h 13.480469 c 0.31,0 0.529297,-1.521164 0.529297,-3.388253 0,-1.867089 -0.249297,-3.388252 -0.529297,-3.388252 z"
     style="fill:#f5f5f5;fill-opacity:1;stroke-width:1.11197233" /></svg>