<?xml version="1.0" encoding="UTF-8" standalone="no"?>
<svg
   xmlns:dc="http://purl.org/dc/elements/1.1/"
   xmlns:cc="http://creativecommons.org/ns#"
   xmlns:rdf="http://www.w3.org/1999/02/22-rdf-syntax-ns#"
   xmlns:svg="http://www.w3.org/2000/svg"
   xmlns="http://www.w3.org/2000/svg"
   xmlns:sodipodi="http://sodipodi.sourceforge.net/DTD/sodipodi-0.dtd"
   xmlns:inkscape="http://www.inkscape.org/namespaces/inkscape"
   version="1.1"
   id="Layer_1"
   x="0px"
   y="0px"
   viewBox="0 0 120.56539 122.75176"
   xml:space="preserve"
   sodipodi:docname="source.svg"
   inkscape:version="0.92.4 (5da689c313, 2019-01-14)"
   width="120.5654"
   height="122.75176"><metadata
     id="metadata11"><rdf:RDF><cc:Work
         rdf:about=""><dc:format>image/svg+xml</dc:format><dc:type
           rdf:resource="http://purl.org/dc/dcmitype/StillImage" /><dc:title /></cc:Work></rdf:RDF></metadata><defs
     id="defs9" /><sodipodi:namedview
     pagecolor="#ffffff"
     bordercolor="#666666"
     borderopacity="1"
     objecttolerance="10"
     gridtolerance="10"
     guidetolerance="10"
     inkscape:pageopacity="0"
     inkscape:pageshadow="2"
     inkscape:window-width="1920"
     inkscape:window-height="991"
     id="namedview7"
     showgrid="false"
     inkscape:zoom="3.8411459"
     inkscape:cx="12.380324"
     inkscape:cy="77.5141"
     inkscape:window-x="-9"
     inkscape:window-y="-9"
     inkscape:window-maximized="1"
     inkscape:current-layer="Layer_1" /><g
     id="g4"
     style="fill:none;stroke:#4b4b4b;stroke-width:8.3841095;stroke-miterlimit:4;stroke-dasharray:none;stroke-opacity:1"
     transform="matrix(-0.97368272,0,0,0.93507978,116.48366,3.9199056)"><path
       d="m 15.78,85.7 c 2.67,12.4 10.69,18.59 10.69,24.79 0,6.2 -2.67,12.4 -10.69,12.4 -8.02,0 -10.69,-6.2 -10.69,-12.4 0,-6.2 8.02,-12.4 10.69,-24.79 z"
       id="path858"
       style="fill:none;stroke:#4b4b4b;stroke-width:8.3841095;stroke-miterlimit:4;stroke-dasharray:none;stroke-opacity:1"
       inkscape:connector-curvature="0" /><path
       d="M 75.57,36.65 H 98.41 V 32.1 c 0,-0.75 0.31,-1.44 0.8,-1.93 0.04,-0.04 0.08,-0.08 0.13,-0.11 0.48,-0.43 1.12,-0.69 1.81,-0.69 h 11.56 c 0.75,0 1.43,0.31 1.93,0.8 v 0 0 c 0.49,0.49 0.8,1.18 0.8,1.93 v 36.47 c 0,0.75 -0.31,1.44 -0.8,1.93 -0.04,0.04 -0.08,0.08 -0.13,0.11 -0.48,0.43 -1.12,0.69 -1.81,0.69 h -11.56 c -0.75,0 -1.43,-0.31 -1.93,-0.8 v 0 0 c -0.49,-0.49 -0.8,-1.18 -0.8,-1.93 v -5.31 h -0.05 -16.2 c -1.42,6.38 -5.49,10.85 -10.69,13.46 -3.72,1.87 -8.02,2.79 -12.33,2.78 -4.3,0 -8.62,-0.93 -12.4,-2.74 -5.52,-2.65 -9.89,-7.18 -11.4,-13.51 h -0.85 v 0 c -2.54,0.1 -4.42,0.7 -5.71,1.76 -1.21,1 -1.92,2.48 -2.17,4.41 v 7.76 c 0,0.85 -0.69,1.54 -1.54,1.54 H 1.54 C 0.69,78.73 0,78.04 0,77.19 v -16.81 0 c 0,-0.09 0.01,-0.17 0.02,-0.26 1.13,-6.6 3.62,-11.99 7.64,-15.98 4,-3.97 9.48,-6.51 16.62,-7.46 0.11,-0.02 0.22,-0.04 0.34,-0.04 h 17.93 l 3.11,-10.59 c 0.2,-0.67 0.81,-1.1 1.47,-1.1 v 0 h 5.14 V 13.34 H 39.71 C 37.87,13.34 36.21,12.59 35,11.38 33.79,10.17 33.04,8.5 33.04,6.67 33.04,4.83 33.79,3.17 35,1.96 36.21,0.75 37.88,0 39.71,0 h 37.27 c 1.84,0 3.5,0.75 4.71,1.96 1.21,1.21 1.96,2.88 1.96,4.71 0,1.84 -0.75,3.5 -1.96,4.71 -1.21,1.21 -2.88,1.96 -4.71,1.96 H 65.12 v 11.61 h 6.14 c 0.74,0 1.36,0.52 1.51,1.22 z"
       id="path854"
       style="fill:none;stroke:#4b4b4b;stroke-width:8.3841095;stroke-miterlimit:4;stroke-dasharray:none;stroke-opacity:1"
       inkscape:connector-curvature="0" /></g></svg>