<?xml version="1.0" encoding="UTF-8" standalone="no"?>
<svg
   xmlns:dc="http://purl.org/dc/elements/1.1/"
   xmlns:cc="http://creativecommons.org/ns#"
   xmlns:rdf="http://www.w3.org/1999/02/22-rdf-syntax-ns#"
   xmlns:svg="http://www.w3.org/2000/svg"
   xmlns="http://www.w3.org/2000/svg"
   xmlns:sodipodi="http://sodipodi.sourceforge.net/DTD/sodipodi-0.dtd"
   xmlns:inkscape="http://www.inkscape.org/namespaces/inkscape"
   version="1.1"
   x="0px"
   y="0px"
   viewBox="0 0 110.00058 109.99974"
   enable-background="new 0 0 100 100"
   xml:space="preserve"
   id="svg72"
   sodipodi:docname="structure.svg"
   width="110.00058"
   height="109.99974"
   inkscape:version="0.92.4 (5da689c313, 2019-01-14)"><metadata
     id="metadata78"><rdf:RDF><cc:Work
         rdf:about=""><dc:format>image/svg+xml</dc:format><dc:type
           rdf:resource="http://purl.org/dc/dcmitype/StillImage" /><dc:title></dc:title></cc:Work></rdf:RDF></metadata><defs
     id="defs76" /><sodipodi:namedview
     pagecolor="#ffffff"
     bordercolor="#666666"
     borderopacity="1"
     objecttolerance="10"
     gridtolerance="10"
     guidetolerance="10"
     inkscape:pageopacity="0"
     inkscape:pageshadow="2"
     inkscape:window-width="1920"
     inkscape:window-height="991"
     id="namedview74"
     showgrid="false"
     fit-margin-top="10"
     fit-margin-left="10"
     fit-margin-right="10"
     fit-margin-bottom="10"
     inkscape:zoom="3.6317004"
     inkscape:cx="-29.306854"
     inkscape:cy="70.732084"
     inkscape:window-x="-9"
     inkscape:window-y="-9"
     inkscape:window-maximized="1"
     inkscape:current-layer="svg72" /><path
     inkscape:connector-curvature="0"
     id="path64-6"
     d="m 91.456805,29.999417 c 0.03523,0.002 0.07045,0.0031 0.105682,0.0031 0.543504,0 1.047756,-0.301476 1.314475,-0.793955 L 100.2012,15.669 c 0.32509,-0.601918 0.22344,-1.35251 -0.251626,-1.839827 L 95.708218,9.4784253 C 95.234163,8.9921406 94.501438,8.8857982 93.914657,9.2203126 L 80.715543,16.733458 c -0.51029,0.291151 -0.811231,0.858999 -0.769965,1.456788 L 80.281746,23.116067 57.625654,46.354469 44.847255,33.246475 C 47.038384,26.672861 45.426994,19.389952 40.593828,14.432124 35.821052,9.537275 28.878284,7.833731 22.471974,9.9874235 c -0.02315,0.00826 -0.04328,0.020649 -0.06542,0.029941 -0.02315,0.0093 -0.04428,0.02065 -0.06743,0.03097 -0.167078,0.07537 -0.315032,0.175517 -0.439836,0.300443 -0.0071,0.0052 -0.0161,0.0072 -0.02214,0.01342 -0.0091,0.0093 -0.01107,0.02065 -0.01912,0.02994 -0.123798,0.133186 -0.222434,0.284957 -0.292888,0.452214 -0.01007,0.02271 -0.01711,0.04439 -0.02617,0.06711 -0.05938,0.162094 -0.0926,0.332449 -0.09662,0.507965 -0.001,0.02478 0,0.04749 10e-4,0.07124 0.004,0.146608 0.02013,0.295281 0.06743,0.441889 0.008,0.02375 0.02013,0.04439 0.02919,0.06711 0.0091,0.02375 0.02013,0.04543 0.0302,0.06917 0.07348,0.170355 0.171103,0.322125 0.291882,0.450149 0.0071,0.0072 0.008,0.01652 0.01509,0.02375 l 6.901502,7.080548 c 0.649186,0.664898 1.00649,1.547643 1.00649,2.486141 0,0.937465 -0.355291,1.818145 -1.001457,2.480979 l -3.46132,3.550599 c -0.64516,0.662832 -1.503696,1.027288 -2.416582,1.027288 h -10e-4 c -0.9149,0 -1.775449,-0.367553 -2.424636,-1.032451 l -6.901511,-7.079514 c -0.007,-0.0072 -0.0161,-0.0093 -0.02315,-0.01549 -0.124804,-0.123894 -0.272758,-0.224041 -0.438829,-0.298378 -0.02315,-0.01033 -0.04529,-0.02168 -0.06945,-0.03097 -0.02315,-0.0093 -0.04328,-0.02271 -0.06643,-0.02994 -0.141915,-0.04749 -0.285843,-0.06504 -0.428765,-0.06918 -0.02416,-0.0011 -0.0463,-0.002 -0.07045,-0.0011 -0.171103,0.0042 -0.337174,0.0382 -0.494187,0.09911 -0.02315,0.0093 -0.04529,0.01755 -0.06844,0.02788 -0.162045,0.07227 -0.308992,0.172419 -0.437823,0.298378 -0.0091,0.0093 -0.02214,0.01136 -0.0312,0.02065 -0.007,0.0072 -0.0091,0.01652 -0.0151,0.02375 -0.119772,0.128024 -0.216395,0.278762 -0.289869,0.449117 -0.01006,0.02478 -0.02214,0.04646 -0.0312,0.07124 -0.0091,0.02375 -0.02214,0.04337 -0.02919,0.06814 -2.092494,6.57568 -0.432791,13.698558 4.33294,18.587211 3.412001,3.500008 7.953283,5.357388 12.586158,5.357388 1.927428,0 3.867941,-0.342774 5.75209,-1.00251 l 8.596432,8.819195 c -0.197272,-0.02271 -0.391524,-0.05989 -0.593829,-0.05989 -1.428209,0 -2.771874,0.570945 -3.781383,1.606493 L 11.371396,82.271367 c -1.00951,1.036581 -1.5661,2.41387 -1.5661,3.878918 0,1.465047 0.55659,2.842336 1.5661,3.878917 l 10.052822,10.312118 c 1.009509,1.03452 2.352167,1.60546 3.781383,1.60546 1.428209,0 2.770868,-0.57094 3.781383,-1.60649 L 55.59355,73.047452 c 1.009509,-1.035549 1.566099,-2.41387 1.566099,-3.878918 0,-0.20649 -0.03623,-0.406786 -0.05837,-0.609145 l 8.58838,8.809902 c -2.191128,6.577743 -0.578731,13.862716 4.255441,18.820545 3.402942,3.491747 7.917051,5.358414 12.55395,5.358414 1.855968,0 3.733072,-0.2994 5.565891,-0.91372 0.02416,-0.008 0.04328,-0.0216 0.06643,-0.0299 0.02315,-0.009 0.04429,-0.0207 0.06743,-0.031 0.167078,-0.0754 0.315031,-0.17552 0.439836,-0.29941 0.0071,-0.006 0.0161,-0.008 0.02214,-0.0155 0.0091,-0.009 0.01107,-0.0207 0.01912,-0.0299 0.122793,-0.13319 0.221428,-0.283929 0.291882,-0.451181 0.01007,-0.0227 0.01811,-0.04541 0.02617,-0.06811 0.05938,-0.161058 0.0926,-0.331419 0.09662,-0.507964 10e-4,-0.02473 0,-0.04753 -0.001,-0.07226 -0.004,-0.146615 -0.02013,-0.294255 -0.06744,-0.439828 -0.008,-0.02376 -0.02114,-0.04443 -0.02919,-0.06811 -0.0091,-0.02376 -0.02013,-0.04647 -0.0302,-0.07023 -0.07348,-0.171386 -0.171103,-0.32316 -0.291883,-0.45118 -0.0061,-0.0062 -0.008,-0.01546 -0.01409,-0.0227 l -6.90151,-7.079511 c -1.336619,-1.371094 -1.338632,-3.600156 -0.005,-4.968153 l 3.461319,-3.550598 c 1.334606,-1.367998 3.506612,-1.3649 4.84323,0.0051 l 6.901511,7.079515 c 0.006,0.0062 0.0151,0.0083 0.0221,0.01445 0.1248,0.123894 0.273765,0.225074 0.439829,0.300443 0.02312,0.01033 0.04429,0.02168 0.06741,0.03097 0.0221,0.0093 0.04224,0.02168 0.06545,0.02994 0.156013,0.05266 0.313024,0.07744 0.469029,0.07744 0.18016,0 0.352266,-0.0413 0.517333,-0.104278 0.04932,-0.01859 0.09159,-0.04749 0.138896,-0.07124 0.118767,-0.05988 0.227466,-0.133186 0.328119,-0.224042 0.02415,-0.02168 0.05538,-0.02994 0.0785,-0.05369 0.02116,-0.02168 0.02722,-0.05059 0.04727,-0.07227 0.08656,-0.09911 0.155006,-0.209588 0.215392,-0.332449 0.02517,-0.05266 0.05836,-0.09912 0.07748,-0.153835 0.0068,-0.01859 0.02014,-0.03304 0.0262,-0.05163 C 101.55282,82.381828 99.892114,75.25895 95.120345,70.364101 90.28827,65.407316 83.187483,63.754362 76.77916,66.000975 L 63.999755,52.89298 86.654841,29.653545 Z m -35.142608,32.561432 -1.685871,1.738647 -8.11231,-8.322586 0.215388,-0.221977 c 0.003,-0.0031 0.0071,-0.0042 0.01007,-0.0062 0.003,-0.0031 0.004,-0.0072 0.0071,-0.01033 l 1.458404,-1.505314 c 0.74279,-0.761948 2.026065,-0.760917 2.767848,0 l 0.54753,0.561654 c 0,0 0,0.0011 10e-4,0.0011 l 4.247388,4.356942 v 0 l 0.549544,0.563718 c 0.371395,0.380975 0.575712,0.884811 0.575712,1.41962 -0.002,0.535842 -0.206331,1.039678 -0.581751,1.424782 z M 86.099258,26.528317 c -0.01711,0 -0.03423,0 -0.05133,0.0011 -0.419706,0 -0.80016,0.182744 -1.070906,0.483187 L 56.832539,55.881925 54.711865,53.706551 82.891574,24.801027 c 0.002,-0.002 0.003,-0.0062 0.0061,-0.0082 0.132856,-0.139382 0.239545,-0.302508 0.313018,-0.48422 0.004,-0.01033 0.01007,-0.02065 0.01409,-0.032 0.06341,-0.165192 0.09662,-0.342773 0.100649,-0.528615 0.001,-0.02168 0.002,-0.04336 0.002,-0.06504 0,-0.02581 0.004,-0.04956 0.002,-0.07537 l -0.31805,-4.653255 11.370316,-6.471401 2.638015,2.706053 -6.308682,11.663596 -4.536251,-0.325222 c -0.02516,-0.0031 -0.05033,0.002 -0.07549,0.0011 z"
     style="fill:#8c8c8c;fill-opacity:0.35294119;stroke-width:1.01938772"
     sodipodi:nodetypes="cscccccccccccccccccccccccccccsscssccccccccccccccccssccsccsccscsscccscccccccccccccccsccccccccsccccccccccccccccccccsccccccccccccccccccscccccccc" /><path
     inkscape:connector-curvature="0"
     id="path64"
     d="m 91.456805,29.999417 c 0.03523,0.002 0.07045,0.0031 0.105682,0.0031 0.543504,0 1.047756,-0.301476 1.314475,-0.793955 L 100.2012,15.668999 c 0.32509,-0.601918 0.22344,-1.35251 -0.251626,-1.839827 L 95.708218,9.4784247 C 95.234163,8.99214 94.501438,8.8857976 93.914657,9.220312 l -13.199114,7.513145 c -0.51029,0.291151 -0.811231,0.858999 -0.769965,1.456788 L 80.281746,23.116067 57.625654,46.354469 44.847255,33.246475 C 47.038384,26.672861 45.426994,19.389952 40.593828,14.432123 35.821052,9.5372744 28.878284,7.8337303 22.471974,9.9874229 c -0.02315,0.00826 -0.04328,0.020649 -0.06542,0.029941 -0.02315,0.0093 -0.04428,0.02065 -0.06743,0.03097 -0.167078,0.07537 -0.315032,0.175517 -0.439836,0.300443 -0.0071,0.0052 -0.0161,0.0072 -0.02214,0.01342 -0.0091,0.0093 -0.01107,0.02065 -0.01912,0.02994 -0.123798,0.133186 -0.222434,0.284957 -0.292888,0.452214 -0.01007,0.02271 -0.01711,0.04439 -0.02617,0.06711 -0.05938,0.162094 -0.0926,0.332449 -0.09662,0.507965 -0.001,0.02478 0,0.04749 10e-4,0.07124 0.004,0.146608 0.02013,0.295281 0.06743,0.441889 0.008,0.02375 0.02013,0.04439 0.02919,0.06711 0.0091,0.02375 0.02013,0.04543 0.0302,0.06917 0.07348,0.170355 0.171103,0.322125 0.291882,0.450149 0.0071,0.0072 0.008,0.01652 0.01509,0.02375 l 6.901502,7.080549 c 0.649186,0.664898 1.00649,1.547643 1.00649,2.486141 0,0.937465 -0.355291,1.818145 -1.001457,2.480979 l -3.46132,3.550599 c -0.64516,0.662832 -1.503696,1.027288 -2.416582,1.027288 0,0 -10e-4,0 -10e-4,0 -0.9149,0 -1.775449,-0.367553 -2.424636,-1.032451 l -6.901512,-7.079514 c -0.007,-0.0072 -0.0161,-0.0093 -0.02315,-0.01549 -0.124804,-0.123894 -0.272758,-0.224041 -0.438829,-0.298378 -0.02315,-0.01033 -0.04529,-0.02168 -0.06945,-0.03097 -0.02315,-0.0093 -0.04328,-0.02271 -0.06643,-0.02994 -0.141915,-0.04749 -0.285843,-0.06504 -0.428765,-0.06918 -0.02416,-0.0011 -0.0463,-0.002 -0.07045,-0.0011 -0.171103,0.0042 -0.337174,0.0382 -0.494187,0.09911 -0.02315,0.0093 -0.04529,0.01755 -0.06844,0.02788 -0.162045,0.07227 -0.308992,0.172419 -0.437823,0.298378 -0.0091,0.0093 -0.02214,0.01136 -0.0312,0.02065 -0.007,0.0072 -0.0091,0.01652 -0.0151,0.02375 -0.119772,0.128024 -0.216395,0.278762 -0.289869,0.449117 -0.01006,0.02478 -0.02214,0.04646 -0.0312,0.07124 -0.0091,0.02375 -0.02214,0.04337 -0.02919,0.06814 -2.0924931,6.57568 -0.432791,13.698558 4.33294,18.587211 3.412001,3.500008 7.953284,5.357388 12.586159,5.357388 1.927428,0 3.867941,-0.342774 5.75209,-1.00251 l 8.596432,8.819195 c -0.197272,-0.02271 -0.391524,-0.05989 -0.593829,-0.05989 -1.428209,0 -2.771874,0.570945 -3.781383,1.606493 L 11.371395,82.271367 c -1.00951,1.036581 -1.5660991,2.41387 -1.5660991,3.878918 0,1.465047 0.5565891,2.842336 1.5660991,3.878917 l 10.052823,10.312118 c 1.009509,1.03452 2.352167,1.60546 3.781383,1.60546 1.428209,0 2.770868,-0.57094 3.781383,-1.60649 L 55.59355,73.047452 c 1.009509,-1.035549 1.566099,-2.41387 1.566099,-3.878918 0,-0.20649 -0.03623,-0.406786 -0.05837,-0.609145 l 8.58838,8.809902 c -2.191128,6.577743 -0.578731,13.862716 4.255441,18.820545 3.402942,3.491747 7.917051,5.358414 12.55395,5.358414 1.855968,0 3.733072,-0.2994 5.565891,-0.91372 0.02416,-0.008 0.04328,-0.0216 0.06643,-0.0299 0.02315,-0.009 0.04429,-0.0207 0.06743,-0.031 0.167078,-0.0754 0.315031,-0.17552 0.439836,-0.29941 0.0071,-0.006 0.0161,-0.008 0.02214,-0.0155 0.0091,-0.009 0.01107,-0.0207 0.01912,-0.0299 0.122793,-0.13319 0.221428,-0.283929 0.291882,-0.451181 0.01007,-0.0227 0.01811,-0.04541 0.02617,-0.06811 0.05938,-0.161058 0.0926,-0.331419 0.09662,-0.507964 10e-4,-0.02473 0,-0.04753 -0.001,-0.07226 -0.004,-0.146615 -0.02013,-0.294255 -0.06744,-0.439828 -0.008,-0.02376 -0.02114,-0.04443 -0.02919,-0.06811 -0.0091,-0.02376 -0.02013,-0.04647 -0.0302,-0.07023 -0.07348,-0.171386 -0.171103,-0.32316 -0.291883,-0.45118 -0.0061,-0.0062 -0.008,-0.01546 -0.01409,-0.0227 l -6.90151,-7.079511 c -1.336619,-1.371094 -1.338632,-3.600156 -0.005,-4.968153 l 3.461319,-3.550598 c 1.334606,-1.367998 3.506612,-1.3649 4.84323,0.0051 l 6.901511,7.079515 c 0.006,0.0062 0.0151,0.0083 0.0221,0.01445 0.1248,0.123894 0.273765,0.225074 0.439829,0.300443 0.02312,0.01033 0.04429,0.02168 0.06741,0.03097 0.0221,0.0093 0.04224,0.02168 0.06545,0.02994 0.156013,0.05266 0.313024,0.07744 0.469029,0.07744 0.18016,0 0.352266,-0.0413 0.517333,-0.104278 0.04932,-0.01859 0.09159,-0.04749 0.138896,-0.07124 0.118767,-0.05988 0.227466,-0.133186 0.328119,-0.224042 0.02415,-0.02168 0.05538,-0.02994 0.0785,-0.05369 0.02116,-0.02168 0.02722,-0.05059 0.04727,-0.07227 0.08656,-0.09911 0.155006,-0.209588 0.215392,-0.332449 0.02517,-0.05266 0.05836,-0.09912 0.07748,-0.153835 0.0068,-0.01859 0.02014,-0.03304 0.0262,-0.05163 C 101.55282,82.381828 99.892114,75.25895 95.120345,70.364101 90.28827,65.407316 83.187483,63.754362 76.77916,66.000975 L 63.999755,52.89298 86.654841,29.653545 Z M 35.249366,41.77968 C 34.835698,41.329531 34.183492,41.159177 33.59067,41.405932 28.061013,43.708298 21.763405,42.402247 17.545204,38.075246 14.200638,34.644413 12.706,29.889977 13.366258,25.20265 l 4.987158,5.115794 c 1.21584,1.2472 2.831257,1.934813 4.549335,1.935845 0.001,0 0.002,0 0.003,0 1.716066,0 3.330476,-0.685547 4.543296,-1.930683 L 30.9104,26.77404 c 1.214834,-1.246168 1.883143,-2.902219 1.882136,-4.664612 -10e-4,-1.761361 -0.671329,-3.419477 -1.888175,-4.666678 l -4.988178,-5.117859 c 4.567452,-0.680385 9.202339,0.853837 12.550931,4.288802 4.208136,4.316676 5.484365,10.757104 3.258009,16.416999 -0.01409,0.03304 -0.02013,0.06711 -0.0312,0.102213 -0.04932,0.144543 -0.0765,0.290119 -0.08253,0.436726 -10e-4,0.03201 -0.008,0.06298 -0.008,0.09499 0.002,0.172419 0.03824,0.340708 0.09461,0.500739 0.008,0.02374 0.01207,0.04646 0.02114,0.0702 0.07348,0.18068 0.180162,0.346904 0.317045,0.48835 10e-4,0.0011 10e-4,0.002 0.002,0.0042 l 0.003,0.0031 c 0.001,0.0011 0.002,0.002 0.004,0.0042 l 13.453753,13.80077 -2.964113,3.039535 c -0.851491,-0.650444 -1.868046,-1.017996 -2.947004,-1.017996 -1.32454,0 -2.571581,0.53068 -3.514663,1.498086 l -0.403603,0.414013 z M 53.466837,70.865883 26.859264,98.158724 c -0.884705,0.906486 -2.425641,0.905452 -3.309339,0 L 13.497102,87.846601 c -0.44185,-0.453245 -0.684414,-1.056197 -0.684414,-1.697349 0,-0.641152 0.243571,-1.243071 0.684414,-1.697349 L 40.104674,57.159066 c 0.441849,-0.453245 1.029639,-0.703098 1.65467,-0.703098 0.62201,0 1.207788,0.24882 1.648631,0.697937 l 10.057855,10.31728 c 0.441849,0.453246 0.68542,1.055165 0.68542,1.696317 0,0.642184 -0.242565,1.244103 -0.684413,1.698381 z m 2.84736,-8.305034 -1.685871,1.738647 -8.11231,-8.322586 0.215388,-0.221977 c 0.003,-0.0031 0.0071,-0.0042 0.01007,-0.0062 0.003,-0.0031 0.004,-0.0072 0.0071,-0.01033 l 1.458404,-1.505314 c 0.74279,-0.761948 2.026065,-0.760917 2.767848,0 l 0.54753,0.561654 c 0,0 0,0.0011 10e-4,0.0011 l 4.247388,4.356942 c 0,0 0,0 0,0 l 0.549544,0.563718 c 0.371395,0.380975 0.575712,0.884811 0.575712,1.41962 -0.002,0.535842 -0.206331,1.039678 -0.581751,1.424782 z m 19.010585,6.313436 c 0.002,0.002 0.004,0.0042 0.0061,0.0062 l 0.003,0.0031 c 10e-4,0.0011 0.002,0.0011 0.003,0.002 0.13789,0.13938 0.300941,0.249853 0.477077,0.325221 0.02214,0.01033 0.04529,0.01342 0.06844,0.02168 0.154999,0.05782 0.31805,0.09395 0.486134,0.09705 0.01007,0 0.01912,0.0062 0.02919,0.0062 0.02315,0 0.0463,-0.01238 0.06945,-0.01342 0.140909,-0.0072 0.282824,-0.03407 0.42172,-0.08466 0.03322,-0.01239 0.06643,-0.01755 0.09964,-0.032 5.517579,-2.282748 11.797071,-0.9736 16.005206,3.342044 3.348598,3.434964 4.845245,8.190432 4.181967,12.874661 l -4.989172,-5.117859 c -2.508174,-2.572867 -6.589491,-2.576997 -9.096658,-0.0051 l -3.461319,3.550597 c -2.50616,2.570803 -2.504147,6.757391 0.005,9.33129 l 4.987199,5.114789 C 80.051259,98.973329 75.417379,97.440135 72.071806,94.0093 67.854612,89.682299 66.57939,83.222254 68.824869,77.549969 69.06542,76.942889 68.899349,76.272828 68.46052,75.849523 L 58.037308,65.15643 58.444937,64.738288 c 0.939055,-0.963277 1.456391,-2.242483 1.456391,-3.601188 0,-1.105755 -0.358311,-2.149563 -0.992399,-3.021984 l 2.964113,-3.040568 z M 86.099258,26.528317 c -0.01711,0 -0.03423,0 -0.05133,0.0011 -0.419706,0 -0.80016,0.182744 -1.070906,0.483187 L 56.832539,55.881925 54.711865,53.706551 82.891574,24.801027 c 0.002,-0.002 0.003,-0.0062 0.0061,-0.0082 0.132856,-0.139382 0.239545,-0.302508 0.313018,-0.48422 0.004,-0.01033 0.01007,-0.02065 0.01409,-0.032 0.06341,-0.165192 0.09662,-0.342773 0.100649,-0.528615 0.001,-0.02168 0.002,-0.04336 0.002,-0.06504 0,-0.02581 0.004,-0.04956 0.002,-0.07537 l -0.31805,-4.653256 11.370316,-6.471401 2.638015,2.706053 -6.308682,11.663597 -4.536251,-0.325222 c -0.02516,-0.0031 -0.05033,0.002 -0.07549,0.0011 z"
     style="stroke-width:1.01938772;fill:#282828;fill-opacity:1" /></svg>