<?xml version="1.0" encoding="UTF-8" standalone="no"?>
<svg
   xmlns:dc="http://purl.org/dc/elements/1.1/"
   xmlns:cc="http://creativecommons.org/ns#"
   xmlns:rdf="http://www.w3.org/1999/02/22-rdf-syntax-ns#"
   xmlns:svg="http://www.w3.org/2000/svg"
   xmlns="http://www.w3.org/2000/svg"
   xmlns:sodipodi="http://sodipodi.sourceforge.net/DTD/sodipodi-0.dtd"
   xmlns:inkscape="http://www.inkscape.org/namespaces/inkscape"
   version="1.1"
   id="svg4"
   sodipodi:docname="brain.svg"
   width="511.97552"
   height="512"
   inkscape:version="0.92.4 (5da689c313, 2019-01-14)">
  <metadata
     id="metadata10">
    <rdf:RDF>
      <cc:Work
         rdf:about="">
        <dc:format>image/svg+xml</dc:format>
        <dc:type
           rdf:resource="http://purl.org/dc/dcmitype/StillImage" />
      </cc:Work>
    </rdf:RDF>
  </metadata>
  <defs
     id="defs8" />
  <sodipodi:namedview
     pagecolor="#ffffff"
     bordercolor="#666666"
     borderopacity="1"
     objecttolerance="10"
     gridtolerance="10"
     guidetolerance="10"
     inkscape:pageopacity="0"
     inkscape:pageshadow="2"
     inkscape:window-width="1842"
     inkscape:window-height="1051"
     id="namedview6"
     showgrid="false"
     inkscape:zoom="0.295"
     inkscape:cx="50.005894"
     inkscape:cy="462"
     inkscape:window-x="-9"
     inkscape:window-y="-9"
     inkscape:window-maximized="1"
     inkscape:current-layer="svg4" />
  <path
     d="m 509.21589,275 c -20.94,-47.12 -48.44,-151.73 -73.08,-186.75 A 207.94,207.94 0 0 0 266.09589,0 h -66.09 C 95.475894,0 4.1258939,80.08 0.14589393,184.55 A 191.3,191.3 0 0 0 64.005894,334.82 V 504 a 8,8 0 0 0 8,8 h 16 a 8,8 0 0 0 8,-8 V 320.54 l -10.64,-9.54 a 159.67,159.67 0 0 1 -53.25,-125.23 C 35.355894,101 110.66589,32 200.00589,32 h 66.08 a 176.08,176.08 0 0 1 143.92,74.66 c 12.52,17.8 29.11,66.74 42.45,106.07 9.73,28.71 18.93,55.83 27.57,75.27 h -64.02 v 96 a 32,32 0 0 1 -32,32 h -96 v 88 a 8,8 0 0 0 8,8 h 16 a 8,8 0 0 0 8,-8 v -56 h 64 a 64,64 0 0 0 64,-64 v -64 h 32 a 32,32 0 0 0 29.21,-45 z m -195.61,-83 c 21.21,0 38.4,-16.48 38.4,-36.8 0,-20.32 -17.19,-36.8 -38.4,-36.8 h -2.6 a 38.09,38.09 0 0 0 -35.8,-25.6 c -7.1,0 -13.38,2.45 -19.08,5.81 -6.77,-10.93 -18.32,-18.61 -32.12,-18.61 -13.8,0 -25.34,7.68 -32.11,18.61 -5.71,-3.36 -12,-5.81 -19.09,-5.81 a 38.4,38.4 0 0 0 -38.4,38.4 38.4,38.4 0 0 0 -38.399996,38.4 c 0,16.85 10.999996,30.74 26.109996,35.92 -0.06,0.86 -0.51,1.6 -0.51,2.48 a 38.4,38.4 0 0 0 38.4,38.4 37.91,37.91 0 0 0 12.8,-2.58 V 288 h 51.2 v -44.18 a 37.91,37.91 0 0 0 12.8,2.58 38.4,38.4 0 0 0 38.4,-38.4 37.84,37.84 0 0 0 -3.73,-16 z"
     class=""
     data-darkreader-inline-fill=""
     style="fill:#f16046;fill-opacity:1"
     id="path2"
     inkscape:connector-curvature="0" />
</svg>
