<?xml version="1.0" encoding="UTF-8" standalone="no"?>
<svg
   xmlns:dc="http://purl.org/dc/elements/1.1/"
   xmlns:cc="http://creativecommons.org/ns#"
   xmlns:rdf="http://www.w3.org/1999/02/22-rdf-syntax-ns#"
   xmlns:svg="http://www.w3.org/2000/svg"
   xmlns="http://www.w3.org/2000/svg"
   xmlns:sodipodi="http://sodipodi.sourceforge.net/DTD/sodipodi-0.dtd"
   xmlns:inkscape="http://www.inkscape.org/namespaces/inkscape"
   version="1.1"
   x="0px"
   y="0px"
   viewBox="0 0 60 60"
   xml:space="preserve"
   id="svg8"
   sodipodi:docname="collection.svg"
   width="60"
   height="60"
   inkscape:version="0.92.4 (5da689c313, 2019-01-14)"><metadata
     id="metadata14"><rdf:RDF><cc:Work
         rdf:about=""><dc:format>image/svg+xml</dc:format><dc:type
           rdf:resource="http://purl.org/dc/dcmitype/StillImage" /><dc:title></dc:title></cc:Work></rdf:RDF></metadata><defs
     id="defs12" /><sodipodi:namedview
     pagecolor="#ffffff"
     bordercolor="#666666"
     borderopacity="1"
     objecttolerance="10"
     gridtolerance="10"
     guidetolerance="10"
     inkscape:pageopacity="0"
     inkscape:pageshadow="2"
     inkscape:window-width="1837"
     inkscape:window-height="1051"
     id="namedview10"
     showgrid="false"
     inkscape:zoom="11.8"
     inkscape:cx="30"
     inkscape:cy="28.779661"
     inkscape:window-x="-9"
     inkscape:window-y="-9"
     inkscape:window-maximized="1"
     inkscape:current-layer="svg8" /><path
     style="fill:#292929;fill-opacity:1;stroke:#f6f6f6;stroke-width:2.82117009;stroke-linecap:butt;stroke-linejoin:miter;stroke-miterlimit:4;stroke-dasharray:none;stroke-dashoffset:90.10159302;stroke-opacity:1"
     d="m 24.97812,5.1137896 c 2.134652,-2.615813 27.794073,-2.544859 30.044661,0 2.250589,2.544859 2.074818,27.4119884 0,29.4868064 -2.074818,2.074818 -27.890149,2.3139 -30.044661,0 -2.154513,-2.3139 -2.134653,-26.8709924 0,-29.4868064 z"
     id="rect4673"
     inkscape:connector-curvature="0"
     sodipodi:nodetypes="zzzzz" /><path
     style="fill:#292929;fill-opacity:1;stroke:#f6f6f6;stroke-width:2.82117009;stroke-linecap:butt;stroke-linejoin:miter;stroke-miterlimit:4;stroke-dasharray:none;stroke-dashoffset:90.10159302;stroke-opacity:1"
     d="m 14.716303,15.316022 c 2.134652,-2.615813 27.794073,-2.544859 30.044661,0 2.250589,2.544859 2.074818,27.411989 0,29.486807 -2.074818,2.074818 -27.890149,2.3139 -30.044661,0 -2.154513,-2.3139 -2.134653,-26.870993 0,-29.486807 z"
     id="rect4673-8"
     inkscape:connector-curvature="0"
     sodipodi:nodetypes="zzzzz" /><path
     style="fill:#292929;fill-opacity:1;stroke:#f6f6f6;stroke-width:2.82117009;stroke-linecap:butt;stroke-linejoin:miter;stroke-miterlimit:4;stroke-dasharray:none;stroke-dashoffset:90.10159302;stroke-opacity:1"
     d="m 4.8010489,26.078734 c 2.134652,-2.615813 27.7940731,-2.544859 30.0446611,0 2.250589,2.544859 2.074818,27.411988 0,29.486806 -2.074818,2.074818 -27.8901491,2.3139 -30.0446611,0 -2.154513,-2.3139 -2.134653,-26.870992 0,-29.486806 z"
     id="rect4673-5"
     inkscape:connector-curvature="0"
     sodipodi:nodetypes="zzzzz" /></svg>