<?xml version="1.0" encoding="UTF-8" standalone="no"?>
<svg
   xmlns:dc="http://purl.org/dc/elements/1.1/"
   xmlns:cc="http://creativecommons.org/ns#"
   xmlns:rdf="http://www.w3.org/1999/02/22-rdf-syntax-ns#"
   xmlns:svg="http://www.w3.org/2000/svg"
   xmlns="http://www.w3.org/2000/svg"
   xmlns:sodipodi="http://sodipodi.sourceforge.net/DTD/sodipodi-0.dtd"
   xmlns:inkscape="http://www.inkscape.org/namespaces/inkscape"
   viewBox="0 0 17.015708 17.027969"
   version="1.1"
   x="0px"
   y="0px"
   id="svg10"
   sodipodi:docname="entity.svg"
   width="17.015709"
   height="17.027969"
   inkscape:version="0.92.4 (5da689c313, 2019-01-14)">
  <metadata
     id="metadata16">
    <rdf:RDF>
      <cc:Work
         rdf:about="">
        <dc:format>image/svg+xml</dc:format>
        <dc:type
           rdf:resource="http://purl.org/dc/dcmitype/StillImage" />
        <dc:title></dc:title>
      </cc:Work>
    </rdf:RDF>
  </metadata>
  <defs
     id="defs14" />
  <sodipodi:namedview
     pagecolor="#ffffff"
     bordercolor="#666666"
     borderopacity="1"
     objecttolerance="10"
     gridtolerance="10"
     guidetolerance="10"
     inkscape:pageopacity="0"
     inkscape:pageshadow="2"
     inkscape:window-width="1837"
     inkscape:window-height="1051"
     id="namedview12"
     showgrid="false"
     inkscape:zoom="7.8666662"
     inkscape:cx="7.9997188"
     inkscape:cy="-20.531415"
     inkscape:window-x="-9"
     inkscape:window-y="-9"
     inkscape:window-maximized="1"
     inkscape:current-layer="svg10" />
  <g
     transform="translate(-4.0002821,-1031.2265)"
     id="g4"
     style="fill:#f2f2f2;fill-opacity:1;stroke:none;stroke-opacity:1">
    <path
       style="color:#000000;font-style:normal;font-variant:normal;font-weight:normal;font-stretch:normal;font-size:medium;line-height:normal;font-family:sans-serif;font-variant-ligatures:normal;font-variant-position:normal;font-variant-caps:normal;font-variant-numeric:normal;font-variant-alternates:normal;font-feature-settings:normal;text-indent:0;text-align:start;text-decoration:none;text-decoration-line:none;text-decoration-style:solid;text-decoration-color:#000000;letter-spacing:normal;word-spacing:normal;text-transform:none;writing-mode:lr-tb;direction:ltr;text-orientation:mixed;dominant-baseline:auto;baseline-shift:baseline;text-anchor:start;white-space:normal;shape-padding:0;clip-rule:nonzero;display:inline;overflow:visible;visibility:visible;opacity:1;isolation:auto;mix-blend-mode:normal;color-interpolation:sRGB;color-interpolation-filters:linearRGB;solid-color:#000000;solid-opacity:1;vector-effect:none;fill:#f2f2f2;fill-opacity:1;fill-rule:nonzero;stroke:none;stroke-width:0.99993849;stroke-linecap:butt;stroke-linejoin:round;stroke-miterlimit:4;stroke-dasharray:none;stroke-dashoffset:0;stroke-opacity:1;paint-order:markers stroke fill;color-rendering:auto;image-rendering:auto;shape-rendering:auto;text-rendering:auto;enable-background:accumulate"
       d="m 17.173828,2.8808594 v 0.00195 c -0.01805,8e-4 -0.782481,0.031934 -2.507812,0.1777344 -0.58199,0.049 -1.838427,0.2153937 -3.181641,1.5585937 L 4.4453125,11.658203 c -0.5933644,0.5934 -0.5933832,1.570663 0,2.164063 l 5.6249995,5.625 c 0.593361,0.5935 1.570745,0.5933 2.164063,0 l 7.039063,-7.039063 c 1.341656,-1.3417 1.523907,-2.5866124 1.558593,-3.1953124 0.101361,-1.779 0.175781,-2.6230468 0.175781,-2.6230468 a 0.50001924,0.50001924 0 0 0 0.002,-0.015625 C 21.067196,5.6108187 20.724681,4.6229719 19.990234,3.8886719 19.222222,3.1205719 18.178907,2.7829594 17.173828,2.8808594 Z m 0.07031,0.9980468 a 0.50001924,0.50001924 0 0 0 0.02734,0 c 0.71923,-0.07 1.459117,0.16615 2.011719,0.71875 0.527997,0.5279001 0.76908,1.2272157 0.728516,1.9160157 -7.75e-4,0.01 -0.07633,0.860825 -0.177735,2.640625 -0.03025,0.5309 -0.09858,1.3758221 -1.267578,2.5449221 l -7.039062,7.039062 c -0.213896,0.2139 -0.536127,0.2139 -0.75,0 l -5.6250002,-5.625 c -0.2138509,-0.2139 -0.2138497,-0.5362 0,-0.75 L 12.191406,5.3242188 C 13.35885,4.1568187 14.194461,4.1014875 14.75,4.0546875 c 1.732897,-0.146 2.494141,-0.1757813 2.494141,-0.1757813 z m 0.261718,1 c -0.38493,0 -0.769745,0.1467001 -1.060547,0.4375 -0.581602,0.5817 -0.581601,1.5394938 0,2.1210938 0.581597,0.5816 1.539498,0.5816 2.121094,0 0.581602,-0.5816 0.581595,-1.5394938 0,-2.1210938 -0.290798,-0.2907999 -0.675616,-0.4375 -1.060547,-0.4375 z m 0,0.9941407 c 0.126885,0 0.253732,0.050591 0.353516,0.1503906 0.199567,0.1995 0.199567,0.5074312 0,0.7070313 -0.199567,0.1994999 -0.507464,0.1994999 -0.707031,0 -0.199567,-0.1996 -0.199567,-0.5075313 0,-0.7070313 0.09978,-0.0998 0.22663,-0.1503906 0.353515,-0.1503906 z"
       transform="translate(0,1028.3622)"
       id="path2"
       inkscape:connector-curvature="0" />
  </g>
</svg>
