<?xml version="1.0" encoding="UTF-8" standalone="no"?>
<!-- Generator: Adobe Illustrator 19.0.0, SVG Export Plug-In . SVG Version: 6.00 Build 0)  -->

<svg
   xmlns:dc="http://purl.org/dc/elements/1.1/"
   xmlns:cc="http://creativecommons.org/ns#"
   xmlns:rdf="http://www.w3.org/1999/02/22-rdf-syntax-ns#"
   xmlns:svg="http://www.w3.org/2000/svg"
   xmlns="http://www.w3.org/2000/svg"
   xmlns:sodipodi="http://sodipodi.sourceforge.net/DTD/sodipodi-0.dtd"
   xmlns:inkscape="http://www.inkscape.org/namespaces/inkscape"
   version="1.1"
   id="Capa_1"
   x="0px"
   y="0px"
   viewBox="0 0 512 512"
   style="enable-background:new 0 0 512 512;"
   xml:space="preserve"
   sodipodi:docname="go_dark.svg"
   inkscape:version="0.92.4 (5da689c313, 2019-01-14)"><metadata
   id="metadata49"><rdf:RDF><cc:Work
       rdf:about=""><dc:format>image/svg+xml</dc:format><dc:type
         rdf:resource="http://purl.org/dc/dcmitype/StillImage" /><dc:title /></cc:Work></rdf:RDF></metadata><defs
   id="defs47" /><sodipodi:namedview
   pagecolor="#ffffff"
   bordercolor="#666666"
   borderopacity="1"
   objecttolerance="10"
   gridtolerance="10"
   guidetolerance="10"
   inkscape:pageopacity="0"
   inkscape:pageshadow="2"
   inkscape:window-width="1084"
   inkscape:window-height="696"
   id="namedview45"
   showgrid="false"
   inkscape:zoom="0.4609375"
   inkscape:cx="-244.0678"
   inkscape:cy="256"
   inkscape:window-x="407"
   inkscape:window-y="129"
   inkscape:window-maximized="0"
   inkscape:current-layer="Capa_1" />
















<g
   id="g853"
   transform="matrix(0.7,0,0,0.7,76.8,76.8)"><g
     style="fill:#94f06a;fill-opacity:1"
     id="g6">
	<g
   style="fill:#94f06a;fill-opacity:1"
   id="g4">
		<path
   style="fill:#94f06a;fill-opacity:1"
   id="path2"
   d="M 53.333,224 C 23.936,224 0,247.936 0,277.333 V 448 c 0,29.397 23.936,53.333 53.333,53.333 h 64 c 12.011,0 23.061,-4.053 32,-10.795 V 224 Z"
   inkscape:connector-curvature="0" />
	</g>
</g><g
     style="fill:#94f06a;fill-opacity:1"
     id="g12">
	<g
   style="fill:#94f06a;fill-opacity:1"
   id="g10">
		<path
   style="fill:#94f06a;fill-opacity:1"
   id="path8"
   d="m 512,304 c 0,-12.821 -5.077,-24.768 -13.888,-33.579 9.963,-10.901 15.04,-25.515 13.653,-40.725 -2.496,-27.115 -26.923,-48.363 -55.637,-48.363 H 324.352 c 6.528,-19.819 16.981,-56.149 16.981,-85.333 0,-46.272 -39.317,-85.333 -64,-85.333 -22.165,0 -37.995,12.48 -38.677,12.992 -2.517,2.027 -3.989,5.099 -3.989,8.341 v 72.341 l -61.44,133.099 -2.56,1.301 V 467.392 C 188.032,475.584 210.005,480 224,480 h 195.819 c 23.232,0 43.563,-15.659 48.341,-37.269 2.453,-11.115 1.024,-22.315 -3.861,-32.043 15.765,-7.936 26.368,-24.171 26.368,-42.688 0,-7.552 -1.728,-14.784 -5.013,-21.333 C 501.419,338.731 512,322.496 512,304 Z"
   inkscape:connector-curvature="0" />
	</g>
</g><g
     style="fill:#94f06a;fill-opacity:1"
     id="g14">
</g><g
     style="fill:#94f06a;fill-opacity:1"
     id="g16">
</g><g
     style="fill:#94f06a;fill-opacity:1"
     id="g18">
</g><g
     style="fill:#94f06a;fill-opacity:1"
     id="g20">
</g><g
     style="fill:#94f06a;fill-opacity:1"
     id="g22">
</g><g
     style="fill:#94f06a;fill-opacity:1"
     id="g24">
</g><g
     style="fill:#94f06a;fill-opacity:1"
     id="g26">
</g><g
     style="fill:#94f06a;fill-opacity:1"
     id="g28">
</g><g
     style="fill:#94f06a;fill-opacity:1"
     id="g30">
</g><g
     style="fill:#94f06a;fill-opacity:1"
     id="g32">
</g><g
     style="fill:#94f06a;fill-opacity:1"
     id="g34">
</g><g
     style="fill:#94f06a;fill-opacity:1"
     id="g36">
</g><g
     style="fill:#94f06a;fill-opacity:1"
     id="g38">
</g><g
     style="fill:#94f06a;fill-opacity:1"
     id="g40">
</g><g
     style="fill:#94f06a;fill-opacity:1"
     id="g42">
</g></g>
</svg>