<?xml version="1.0" encoding="UTF-8" standalone="no"?>
<svg
   xmlns:dc="http://purl.org/dc/elements/1.1/"
   xmlns:cc="http://creativecommons.org/ns#"
   xmlns:rdf="http://www.w3.org/1999/02/22-rdf-syntax-ns#"
   xmlns:svg="http://www.w3.org/2000/svg"
   xmlns="http://www.w3.org/2000/svg"
   xmlns:sodipodi="http://sodipodi.sourceforge.net/DTD/sodipodi-0.dtd"
   xmlns:inkscape="http://www.inkscape.org/namespaces/inkscape"
   aria-hidden="true"
   focusable="false"
   data-prefix="far"
   data-icon="sign-out"
   role="img"
   viewBox="0 0 512 512"
   class="svg-inline--fa fa-sign-out fa-w-16 fa-9x"
   version="1.1"
   id="svg4"
   sodipodi:docname="out.svg"
   inkscape:version="0.92.4 (5da689c313, 2019-01-14)">
  <metadata
     id="metadata10">
    <rdf:RDF>
      <cc:Work
         rdf:about="">
        <dc:format>image/svg+xml</dc:format>
        <dc:type
           rdf:resource="http://purl.org/dc/dcmitype/StillImage" />
      </cc:Work>
    </rdf:RDF>
  </metadata>
  <defs
     id="defs8" />
  <sodipodi:namedview
     pagecolor="#ffffff"
     bordercolor="#666666"
     borderopacity="1"
     objecttolerance="10"
     gridtolerance="10"
     guidetolerance="10"
     inkscape:pageopacity="0"
     inkscape:pageshadow="2"
     inkscape:window-width="1842"
     inkscape:window-height="1051"
     id="namedview6"
     showgrid="false"
     inkscape:zoom="0.4609375"
     inkscape:cx="256"
     inkscape:cy="256"
     inkscape:window-x="-9"
     inkscape:window-y="-9"
     inkscape:window-maximized="1"
     inkscape:current-layer="svg4" />
  <path
     fill="currentColor"
     d="M96 64h84c6.6 0 12 5.4 12 12v24c0 6.6-5.4 12-12 12H96c-26.5 0-48 21.5-48 48v192c0 26.5 21.5 48 48 48h84c6.6 0 12 5.4 12 12v24c0 6.6-5.4 12-12 12H96c-53 0-96-43-96-96V160c0-53 43-96 96-96zm231.1 19.5l-19.6 19.6c-4.8 4.8-4.7 12.5.2 17.1L420.8 230H172c-6.6 0-12 5.4-12 12v28c0 6.6 5.4 12 12 12h248.8L307.7 391.7c-4.8 4.7-4.9 12.4-.2 17.1l19.6 19.6c4.7 4.7 12.3 4.7 17 0l164.4-164c4.7-4.7 4.7-12.3 0-17l-164.4-164c-4.7-4.6-12.3-4.6-17 .1z"
     class=""
     data-darkreader-inline-fill=""
     style="fill:#dc88dc;fill-opacity:1"
     id="path2" />
</svg>
