<?xml version="1.0" encoding="UTF-8" standalone="no"?>
<svg
   xmlns:dc="http://purl.org/dc/elements/1.1/"
   xmlns:cc="http://creativecommons.org/ns#"
   xmlns:rdf="http://www.w3.org/1999/02/22-rdf-syntax-ns#"
   xmlns:svg="http://www.w3.org/2000/svg"
   xmlns="http://www.w3.org/2000/svg"
   xmlns:sodipodi="http://sodipodi.sourceforge.net/DTD/sodipodi-0.dtd"
   xmlns:inkscape="http://www.inkscape.org/namespaces/inkscape"
   aria-hidden="true"
   focusable="false"
   data-prefix="far"
   data-icon="walking"
   role="img"
   viewBox="0 0 512 512"
   class="svg-inline--fa fa-walking fa-w-10 fa-9x"
   version="1.1"
   id="svg4"
   sodipodi:docname="walk.svg"
   inkscape:version="0.92.4 (5da689c313, 2019-01-14)"
   width="512"
   height="512">
  <metadata
     id="metadata10">
    <rdf:RDF>
      <cc:Work
         rdf:about="">
        <dc:format>image/svg+xml</dc:format>
        <dc:type
           rdf:resource="http://purl.org/dc/dcmitype/StillImage" />
        <dc:title></dc:title>
      </cc:Work>
    </rdf:RDF>
  </metadata>
  <defs
     id="defs8" />
  <sodipodi:namedview
     pagecolor="#ffffff"
     bordercolor="#666666"
     borderopacity="1"
     objecttolerance="10"
     gridtolerance="10"
     guidetolerance="10"
     inkscape:pageopacity="0"
     inkscape:pageshadow="2"
     inkscape:window-width="1842"
     inkscape:window-height="1051"
     id="namedview6"
     showgrid="false"
     inkscape:zoom="0.4609375"
     inkscape:cx="-340.0678"
     inkscape:cy="256"
     inkscape:window-x="-9"
     inkscape:window-y="-9"
     inkscape:window-maximized="1"
     inkscape:current-layer="svg4" />
  <path
     d="m 190.25763,352.13898 c 0,0 -0.1,-0.1 -0.1,-0.2 l -20.4,51 c -2,5 -5,9.6 -8.9,13.4 l -58.4,58.5 c -9.400003,9.4 -9.400003,24.6 0,33.9 4.7,4.7 10.8,7 16.9,7 6.1,0 12.3,-2.3 16.9,-7 l 58.4,-58.5 c 8.5,-8.5 15,-18.5 19.4,-29.5 l 13.5,-33.7 -36.2,-33.5 z m 113,-251.8 c 26.5,0 47.9,-21.499997 47.9,-47.999997 0,-26.5 -21.5,-47.9999999 -47.9,-47.9999999 -26.5,0 -47.9,21.4999999 -47.9,47.9999999 0,26.5 21.4,47.999997 47.9,47.999997 z m 104.7,174.9 -29.3,-28.9 c -0.9,-0.9 -1.6,-2 -2,-3.2 l -12.9,-38.8 c -14.4,-43.1 -54.4,-72 -99.8,-72 -34.8,0 -53,8.8 -95.7,26 -20.9,8.4 -37.9,24.1 -48.2,44.8 l -14.4,31.1 c -13.300003,28.7 30.1,49.1 43.5,20.2 l 14,-30.4 c 4.8,-9.6 12.9,-17 22.8,-21 21.7,-8.7 33.1,-13.5 44.3,-17.1 l -19.8,79.2 c -4.7,18.9 0.3,38.8 14.9,54.6 l 79,73 c 5.9,5.5 10,12.5 11.8,20.4 l 19.5,84.8 c 2.6,11.5 14.4,21.2 28.7,18 12.9,-3 20.9,-15.9 17.9,-28.8 l -19.5,-84.7 c -4,-17.3 -13,-32.8 -26,-44.9 l -53.8,-49.6 26.2,-104.8 c 7.4,9.7 7.5,12.6 21.8,55.4 2.8,8.3 7.5,15.9 13.8,22.2 l 29.3,29 c 22.3,21.5 56.7,-11.9 33.9,-34.5 z"
     class=""
     data-darkreader-inline-fill=""
     style="fill:#6ee024;fill-opacity:1"
     id="path2"
     inkscape:connector-curvature="0" />
</svg>
